<svg xmlns:xlink="http://www.w3.org/1999/xlink" width="68" height="68" viewBox="0 0 68 68" fill="none" xmlns="http://www.w3.org/2000/svg"><g filter="url(#filter0_d_130:686)" fill="none"><circle cx="32" cy="32.0002" r="30" fill="#FFFFFF"></circle></g><g clip-path="url(#clip0_130:686)" fill="none"><path d="M34.7715 20.3078C34.0788 19.289 33.4675 18.3517 32.897 17.4959C32.8155 17.3736 32.6932 17.2514 32.5709 17.1699C32.0819 16.8438 31.4299 17.0068 31.1039 17.4959C30.5741 18.3517 29.9628 19.2482 29.2293 20.3078C26.0099 25.035 21.2012 32.1665 21.2012 36.2417C21.2012 39.2166 22.4237 41.9062 24.3798 43.8623C26.3359 45.7777 29.0255 47.0002 32.0004 47.0002C34.9753 47.0002 37.6649 45.7777 39.621 43.8216C41.5771 41.8655 42.7997 39.1759 42.7997 36.201C42.7997 32.1258 37.9909 25.035 34.7715 20.3078ZM38.154 42.3545C36.5646 43.9438 34.4048 44.8811 32.0004 44.8811C29.5961 44.8811 27.4362 43.9031 25.8469 42.3545C24.2576 40.7652 23.3203 38.6053 23.3203 36.201C23.3203 32.7778 27.9252 25.9723 30.9816 21.4488C31.3484 20.919 31.6744 20.3893 32.0004 19.941C32.3264 20.3893 32.6524 20.919 33.0192 21.4488C36.0756 26.013 40.6806 32.7778 40.6806 36.201C40.6806 38.6053 39.7025 40.7652 38.154 42.3545Z" fill="#1D56AB"></path><path d="M38.3164 35.4674C37.7458 35.4267 37.2568 35.8749 37.2161 36.4455C37.1753 37.342 36.8901 38.1978 36.4418 38.9313C35.9935 39.6649 35.3415 40.3169 34.5672 40.7244C34.0782 41.0097 33.8744 41.6617 34.1597 42.1507C34.4857 42.7213 35.1377 42.8843 35.6267 42.599C36.727 41.9877 37.6236 41.0912 38.2349 40.0724C38.8869 39.0536 39.2537 37.831 39.2944 36.5677C39.3352 35.9972 38.8869 35.5082 38.3164 35.4674Z" fill="#1D56AB"></path></g><defs><filter id="filter0_d_130:686" x="0" y="0.000244141" width="68" height="68" filterUnits="userSpaceOnUse" color-interpolation-filters="sRGB"><feFlood flood-opacity="0" result="BackgroundImageFix"></feFlood><feColorMatrix in="SourceAlpha" type="matrix" values="0 0 0 0 0 0 0 0 0 0 0 0 0 0 0 0 0 0 127 0" result="hardAlpha"></feColorMatrix><feOffset dx="2" dy="2"></feOffset><feGaussianBlur stdDeviation="2"></feGaussianBlur><feComposite in2="hardAlpha" operator="out"></feComposite><feColorMatrix type="matrix" values="0 0 0 0 0 0 0 0 0 0 0 0 0 0 0 0 0 0 0.15 0"></feColorMatrix><feBlend mode="normal" in2="BackgroundImageFix" result="effect1_dropShadow_130:686"></feBlend><feBlend mode="normal" in="SourceGraphic" in2="effect1_dropShadow_130:686" result="shape"></feBlend></filter><clipPath id="clip0_130:686"><rect width="30" height="30" fill="white" transform="translate(17 17.0002)"></rect></clipPath></defs></svg>