<svg xmlns:xlink="http://www.w3.org/1999/xlink" width="68" height="68" viewBox="0 0 68 68" fill="none" xmlns="http://www.w3.org/2000/svg"><g filter="url(#filter0_d_201:82)" fill="none"><circle cx="32" cy="32.0005" r="30" fill="#FFFFFF"></circle></g><g clip-path="url(#clip0_201:82)" fill="none"><path d="M44.6167 38.1021L41.5696 36.3429L44.2102 34.7858C44.6973 34.4986 44.8593 33.871 44.5721 33.384C44.2849 32.8971 43.6574 32.7351 43.1702 33.0221L39.5328 35.1669L34.0484 32.0004L39.5318 28.8344L43.1704 30.979C43.3335 31.0752 43.5126 31.1208 43.6892 31.1208C44.0397 31.1208 44.3811 30.9406 44.5721 30.6167C44.8591 30.1297 44.697 29.5021 44.21 29.2149L41.569 27.6584L44.6167 25.8988C45.1063 25.6161 45.2741 24.9899 44.9914 24.5003C44.7087 24.0106 44.0826 23.8428 43.593 24.1256L40.5459 25.885L40.5182 22.8191C40.5131 22.2537 40.0493 21.7968 39.4853 21.8046C38.9199 21.8096 38.4656 22.2721 38.4708 22.8375L38.5089 27.0609L33.0248 30.2273V23.8951L36.7017 21.817C37.1939 21.5388 37.3674 20.9143 37.0892 20.422C36.811 19.9298 36.1864 19.7561 35.6942 20.0345L33.0248 21.5432V18.0242C33.0248 17.4589 32.5664 17.0005 32.001 17.0005C31.4356 17.0005 30.9773 17.4589 30.9773 18.0242V21.5432L28.3079 20.0346C27.8154 19.7563 27.1912 19.9298 26.9129 20.4221C26.6347 20.9143 26.8082 21.539 27.3004 21.8171L30.9771 23.8952V30.2273L25.493 27.0609L25.5311 22.8375C25.5363 22.2721 25.082 21.8096 24.5166 21.8046C24.5135 21.8046 24.5105 21.8046 24.5072 21.8046C23.9462 21.8046 23.4888 22.2568 23.4837 22.8192L23.456 25.885L20.4089 24.1256C19.9193 23.8428 19.2932 24.0107 19.0105 24.5003C18.7278 24.9899 18.8956 25.6161 19.3852 25.8988L22.4328 27.6584L19.7914 29.2151C19.3044 29.5022 19.1422 30.1298 19.4293 30.617C19.6203 30.9409 19.9616 31.1211 20.3123 31.1211C20.4889 31.1211 20.6679 31.0754 20.8311 30.9793L24.4701 28.8347L29.9537 32.0007L24.4691 35.1672L20.8311 33.022C20.3444 32.7349 19.7165 32.8968 19.4293 33.3838C19.1421 33.8709 19.3041 34.4985 19.7911 34.7856L22.4321 36.3427L19.3851 38.1019C18.8954 38.3846 18.7277 39.0108 19.0104 39.5004C19.2 39.8288 19.5441 40.0124 19.8979 40.0124C20.0715 40.0124 20.2476 39.9682 20.4088 39.8751L23.4559 38.1157L23.4836 41.1818C23.4886 41.744 23.9461 42.1964 24.5071 42.1964C24.5102 42.1964 24.5133 42.1964 24.5165 42.1963C25.0819 42.1912 25.5361 41.7287 25.531 41.1634L25.4929 36.9398L30.9771 33.7734V40.1058L27.3004 42.1838C26.8082 42.462 26.6347 43.0865 26.9129 43.5789C27.1011 43.9119 27.448 44.0991 27.805 44.0991C27.9757 44.0991 28.1487 44.0563 28.3079 43.9664L30.9773 42.4578V45.9767C30.9773 46.5421 31.4356 47.0005 32.001 47.0005C32.5664 47.0005 33.0248 46.5421 33.0248 45.9767V42.4578L35.6942 43.9664C35.8533 44.0563 36.0263 44.0991 36.197 44.0991C36.5541 44.0991 36.9009 43.9119 37.0892 43.5789C37.3674 43.0866 37.1939 42.462 36.7017 42.1838L33.0248 40.1058V33.7735L38.5089 36.9398L38.4699 41.1632C38.4646 41.7286 38.9187 42.1912 39.4841 42.1964C39.4873 42.1965 39.4905 42.1965 39.4938 42.1965C40.0546 42.1965 40.512 41.7443 40.5172 41.1822L40.5456 38.1157L43.5931 39.8752C43.7543 39.9683 43.9304 40.0125 44.104 40.0125C44.4578 40.0125 44.8019 39.8288 44.9915 39.5005C45.2742 39.0109 45.1065 38.3848 44.6167 38.1021Z" fill="#1D56AB"></path></g><defs><filter id="filter0_d_201:82" x="0" y="0.000488281" width="68" height="68" filterUnits="userSpaceOnUse" color-interpolation-filters="sRGB"><feFlood flood-opacity="0" result="BackgroundImageFix"></feFlood><feColorMatrix in="SourceAlpha" type="matrix" values="0 0 0 0 0 0 0 0 0 0 0 0 0 0 0 0 0 0 127 0" result="hardAlpha"></feColorMatrix><feOffset dx="2" dy="2"></feOffset><feGaussianBlur stdDeviation="2"></feGaussianBlur><feComposite in2="hardAlpha" operator="out"></feComposite><feColorMatrix type="matrix" values="0 0 0 0 0 0 0 0 0 0 0 0 0 0 0 0 0 0 0.15 0"></feColorMatrix><feBlend mode="normal" in2="BackgroundImageFix" result="effect1_dropShadow_201:82"></feBlend><feBlend mode="normal" in="SourceGraphic" in2="effect1_dropShadow_201:82" result="shape"></feBlend></filter><clipPath id="clip0_201:82"><rect width="30" height="30" fill="white" transform="translate(17 17.0005)"></rect></clipPath></defs></svg>