<svg width="255" height="230" viewBox="0 0 255 230" fill="none" xmlns="http://www.w3.org/2000/svg">
<path d="M104.199 32C104.825 32.6123 104.88 34.9112 105 35.8215C81.5487 42.8528 65.1294 55.8689 51.0554 74L47.7655 73.8239C47.3178 73.798 47.348 73.8701 47 73.5642C47.0817 73.2818 47.1607 73.0253 47.3029 72.7619C48.8374 69.9166 51.4544 67.0001 53.5897 64.4781C54.3972 63.5384 55.2227 62.6129 56.0668 61.7013C56.9112 60.7897 57.7733 59.8921 58.6534 59.0094C59.534 58.1267 60.4318 57.2588 61.3467 56.4057C62.2615 55.5527 63.1936 54.7153 64.1419 53.8936C65.0906 53.0719 66.0551 52.2663 67.0359 51.4768C68.0167 50.6872 69.0133 49.9146 70.0252 49.1584C71.0372 48.4023 72.064 47.6635 73.1053 46.9415C74.1465 46.2196 75.2022 45.5158 76.2719 44.8293C77.3416 44.1429 78.4249 43.4741 79.5212 42.824C80.618 42.1738 81.7274 41.5421 82.849 40.929C83.9706 40.316 85.1044 39.7219 86.25 39.1467C87.3959 38.5716 88.5528 38.0154 89.7204 37.479C90.8885 36.9426 92.067 36.4256 93.2554 35.9283C94.4438 35.4315 95.6421 34.9545 96.85 34.4973C98.0578 34.04 99.2742 33.6034 100.5 33.187C101.725 32.771 102.958 32.3752 104.199 32Z" fill="#046BC0"/>
<path d="M151.46 32C159.379 34.1278 166.878 37.684 173.851 41.6762C185.925 48.5883 196.551 58.0198 204.976 68.4795C206.4 70.247 208.463 72.3575 209 74.5071C208.843 75.0707 208.715 75.1088 208.223 75.4938C207.762 75.6708 206.777 76.1309 206.286 75.9642C205.605 75.7332 203.844 73.1616 203.305 72.4922C200.135 68.5407 196.732 64.7645 193.096 61.1631C181.262 49.5455 167.08 41.3039 151 35.5115C151.085 34.3195 151.224 33.1756 151.46 32Z" fill="#046BC0"/>
<path d="M206.058 152C207.441 152.021 208.656 152.215 210 152.499C203.539 166.143 188.314 179.93 174.596 187.55C168.192 191.107 161.289 193.884 154.365 196.457L152.201 197C151.599 195.888 151.255 194.898 151 193.687C176.171 184.897 191.834 172.922 206.058 152Z" fill="#046BC0"/>
<path d="M48.1312 151C49.2317 151.012 49.5736 151.596 50.1518 152.395C52.5768 155.743 54.8906 159.143 57.542 162.341C70.2317 177.651 84.4141 185.446 103 192.932C102.578 194.171 102.287 195.173 101.163 196L100.957 195.945C100.86 195.92 100.764 195.897 100.668 195.871C97.9027 195.138 95.1761 193.893 92.5523 192.798C76.9705 186.299 63.9345 176.526 53.4991 163.827C50.9244 160.695 48.1278 157.15 46.2302 153.613C45.9479 153.086 45.9422 152.699 46.1212 152.135C46.6351 151.462 47.3355 151.29 48.1312 151Z" fill="#046BC0"/>
<path d="M126.645 11C127.049 11.1236 127.374 11.1908 127.695 11.4704C128.127 11.8467 128.159 12.7012 128.144 13.231L128.085 15.6955C128.562 15.298 129.136 14.7314 129.712 14.4821C130.188 14.2759 130.714 14.1888 131.203 14.3796C131.132 15.7295 129.164 17.2054 128.207 18.0961L128.122 21.0409C129.482 19.6936 131.017 17.5083 132.699 16.594C133.172 16.3372 133.365 16.3169 133.87 16.4753L133.997 16.9068C133.551 19.1518 129.952 22.0328 128.263 23.7266C128.258 26.43 128.27 29.133 128.297 31.836C130.455 30.5679 132.57 29.2363 134.642 27.8412C135.569 25.0063 135.672 21.8984 136.739 19.1531C137.113 18.8519 137.152 18.8826 137.622 18.9199C138.207 18.9664 138.608 19.1999 138.969 19.6289L138.818 20.0055C137.947 22.134 137.662 24.6765 137.09 26.9249L139.903 25.027C140.034 24.462 140.168 23.8979 140.306 23.335C140.553 22.3323 140.705 21.0941 141.683 20.5104C142.248 20.5826 142.274 20.6373 142.695 21.0194C142.859 21.9938 142.444 23.0508 142.197 23.9962C143.105 23.4548 144.076 22.8152 145.057 22.4091C145.594 22.1867 146.2 22.0278 146.761 22.2365L146.79 22.6745C145.851 24.2281 144.456 24.9345 142.919 25.8625C143.665 26.0218 144.6 26.1396 145.291 26.4499C145.946 26.7436 146.311 27.063 146.547 27.7197C146.409 27.8554 146.322 27.9615 146.13 28.0453C144.637 28.6954 142.405 27.6533 141.069 27.0091C140.256 27.589 139.374 28.0719 138.509 28.5751C140.248 29.1177 142.013 29.6545 143.722 30.2775C144.456 30.5447 145.232 30.8222 145.576 31.5523C145.483 32.0352 145.447 32.2878 145.081 32.6416C143.857 32.6429 137.601 30.3862 135.962 29.91L129.748 33.8658C131.992 35.4285 134.269 36.9455 136.577 38.4173C138.337 37.9643 143.293 36.3104 144.707 36.3606C145.276 36.3805 145.475 36.5103 145.851 36.9003L145.667 37.423C144.49 38.3422 139.942 39.5013 138.288 40.0447L141.425 41.6974L142.316 41.3999C143.696 40.9486 145.102 40.4475 146.507 41.1166L146.61 41.4709C145.842 42.532 144.356 42.717 143.141 43.0074C143.828 43.3662 144.525 43.7209 145.19 44.1179C145.965 44.58 146.776 45.2587 147 46.1443L146.707 46.4451C144.993 46.5144 143.736 45.5847 142.305 44.7812C142.558 45.9867 142.897 47.0445 142.241 48.1903L141.947 48.2658C141.882 48.2177 141.812 48.1766 141.754 48.1218C140.767 47.1955 140.466 44.8497 140.299 43.5716L137.594 41.6227C137.736 43.2273 138.957 47.3473 138.317 48.4902C137.82 48.8291 137.778 48.8756 137.176 48.8793C136.309 48.1936 135.419 41.641 135.184 40.3309C132.928 38.8865 130.631 37.5068 128.291 36.1922L128.282 44.8758C129.669 45.8689 133.859 49.409 134.014 51.0675C134.043 51.3749 133.68 51.5662 133.47 51.7644C132.111 51.6371 129.364 48.4529 128.32 47.4502V50.5436C128.978 51.1613 129.731 51.7906 130.293 52.4904C130.687 52.9807 131.137 53.7183 131.07 54.355L130.678 54.4571C129.65 54.029 128.9 53.3014 128.077 52.587L128.008 55.3208C127.878 55.9542 127.731 56.3724 127.412 56.939L127.098 57C126.076 56.0314 126.152 54.1277 126.111 52.8343C125.735 53.1653 125.354 53.5171 124.939 53.8029C124.493 54.1111 123.971 54.4895 123.426 54.3965C123.596 53.0317 125.142 51.8341 126.088 50.8962L126.012 47.5933C124.717 48.8988 123.443 50.4192 122.022 51.584C121.657 51.8831 121.413 52.0681 120.907 51.9428C120.405 51.8184 120.267 51.6035 120.038 51.2073C120.51 49.5169 124.515 46.0958 125.949 44.799L125.905 36.2067C123.792 37.6345 121.602 38.94 119.334 40.1235C118.918 41.7608 117.997 47.5967 117.403 48.5931C117.138 49.0378 116.986 49.1597 116.477 49.2663L116.278 49.0867C115.503 47.1669 116.406 43.9337 116.679 41.8977C115.828 42.5453 114.94 43.1489 114.063 43.7628C113.717 45.0347 113.552 47.0047 112.824 48.0733C112.285 48.0567 112.196 48.0567 111.749 47.7742C111.406 46.9072 111.729 45.8552 111.874 44.9587C110.971 45.4246 110.062 45.9282 109.125 46.3256C108.431 46.6197 107.704 46.7757 107 46.499L107 46.1029C107.881 44.6605 109.203 44.0295 110.652 43.2053C109.688 42.7315 108.417 42.4893 107.904 41.458L108.058 41.1286C109.744 40.6624 111.408 41.2888 113.029 41.7368C114.004 41.2016 114.927 40.5993 115.858 39.997C114.073 39.2229 110.422 38.7587 109.243 37.6412C109.034 37.0903 108.984 37.0969 109.207 36.5605C110.488 36.1378 116.464 37.82 118.15 38.1821C120.424 37.145 122.533 35.4803 124.588 34.084C122.49 32.8744 120.499 31.3308 118.464 30.0091C117.154 30.2904 110.071 32.5657 109.444 32.4587C109.256 32.4268 109.102 32.2969 108.93 32.216L108.908 31.7249C109.788 30.0722 113.83 29.1504 115.667 28.4631C114.836 27.9682 114.037 27.4144 113.23 26.8834C111.902 27.3994 109.806 28.5543 108.421 28.0005C108.128 27.5177 108.119 27.5102 108.195 26.9568C108.859 26.23 110.145 26.0131 111.069 25.7074C109.666 24.8296 107.966 23.9692 107.162 22.4879L107.298 22.2265C108.875 21.9129 110.369 22.8878 111.758 23.4801C111.516 22.677 110.993 21.4259 111.33 20.629C111.468 20.3042 111.68 20.3357 111.995 20.2304C113.423 20.9468 113.51 23.5668 114.467 24.7844C115.109 25.6007 116.379 26.3205 117.234 26.939C116.824 25.463 115.256 20.437 115.527 19.2277C115.981 18.8486 116.081 18.8299 116.677 18.7295C117.093 18.9743 117.249 19.0469 117.445 19.5023C117.985 20.7551 118.971 26.0629 119.402 27.7678C121.538 29.2512 123.679 30.7052 126.015 31.8829C126.082 29.1426 126.044 26.3947 126.042 23.6531C124.288 21.8826 121.213 19.4273 120.468 17.0349C120.332 16.6002 120.3 16.5479 120.52 16.1335C122.415 16.416 124.877 19.7093 126.144 21.0866L126.108 17.8239C125.153 17.0325 123.502 15.8079 123.191 14.6128C123.527 14.2456 123.597 14.2784 124.058 14.1365C124.924 14.3074 125.51 14.9334 126.159 15.4797C126.13 13.9436 126.037 12.4536 126.645 11Z" fill="#046BC0"/>
<path d="M126.099 174C126.76 174.078 127.144 174.127 127.684 174.55C128.087 175.207 127.86 175.733 127.869 176.445C127.874 176.889 127.891 177.257 128.226 177.573C128.796 177.299 129.296 177.099 129.916 176.958L130.102 177.175C129.847 178.499 129.021 179.121 128.015 179.933L128.018 183.34C129.52 181.739 130.931 180.078 132.341 178.402C132.879 178.812 133.343 179.295 133.821 179.768C132.191 182.11 130.131 184.149 128.005 186.065C128.01 188.867 127.989 191.668 127.943 194.469C130.057 192.967 132.251 191.649 134.535 190.411C135.161 187.325 135.803 184.243 136.463 181.164C137.023 181.361 137.815 181.512 138.238 181.923C138.548 182.224 137.334 188.31 137.233 189.164C138.317 188.526 139.338 187.783 140.372 187.071C140.513 185.953 140.565 184.482 141.528 183.707C141.898 183.41 141.97 183.408 142.423 183.434C142.485 183.515 142.554 183.591 142.611 183.676C143.187 184.532 142.834 185.353 142.589 186.265C143.802 185.588 144.688 184.523 146.178 184.622C146.684 184.894 146.759 184.898 147 185.398C146.761 187.146 144.669 186.681 143.953 187.87C144.248 187.991 144.553 188.108 144.833 188.257C145.286 188.499 145.481 188.586 145.621 189.094C145.389 189.516 145.133 189.636 144.711 189.865C143.506 189.996 142.717 189.452 141.804 188.753C140.576 189.561 139.342 190.358 138.101 191.145C139.869 191.355 144.865 191.415 145.925 192.782C146.15 193.071 146.05 193.223 146.017 193.558C145.721 193.807 145.682 193.884 145.277 193.976C143.59 194.358 137.283 193.115 135.798 192.266C133.489 193.491 131.245 194.869 128.986 196.182C131.118 197.542 133.23 198.924 135.472 200.112C137.242 199.788 144.964 197.663 145.995 197.855L146.232 198.216C146.274 198.697 146.214 199.045 145.941 199.464C145.405 200.288 139.042 201.468 137.822 201.782C139.029 202.458 140.26 203.12 141.26 204.073C142.377 203.56 143.978 202.631 145.2 202.665C145.595 203.076 145.619 203.562 145.712 204.093C145.38 204.621 144.021 204.848 143.371 205.101L143.396 205.337C144.288 205.7 145.316 206.031 146.141 206.514C146.635 206.803 146.797 207.033 146.942 207.557C146.707 208.14 146.666 208.293 146.171 208.68C144.877 208.893 143.783 207.916 142.773 207.249C142.802 208.227 143.081 209.921 142.398 210.654C142.119 210.72 141.924 210.859 141.669 210.682C140.721 210.029 140.466 207.201 140.249 206.11L137.104 203.613C137.331 205.062 137.529 206.531 137.834 207.966C138.004 208.77 138.418 209.741 138.438 210.553C138.449 210.969 138.33 211.213 138.147 211.578C137.682 211.934 137.619 211.995 137.036 212.051C135.62 211.149 134.899 203.947 134.446 202.011C132.236 200.695 130.028 199.386 127.883 197.973L127.889 206.299C129.831 208.382 132.067 210.202 134.046 212.259L132.525 213.753C130.918 212.327 129.414 210.806 128.013 209.188C127.992 210.584 127.817 212.178 128.104 213.541L128.414 213.717C129.185 214.338 130.08 215.084 130.495 215.978C130.376 216.504 130.419 216.547 129.981 216.865C129.297 216.881 128.867 216.636 128.266 216.338L128.013 216.21C127.695 216.683 127.856 217.824 127.778 218.451C127.466 218.812 127.335 218.984 126.798 218.999C124.83 219.056 126.082 216.854 125.318 216.135C124.984 216.403 124.749 216.529 124.333 216.652L123.932 216.433C123.754 215.948 123.713 215.488 123.936 215.004C124.227 214.372 124.946 214.138 125.554 213.863L125.542 209.35C124.417 210.567 123.306 212.131 121.974 213.116C121.436 213.513 120.959 213.777 120.267 213.674L120.046 213.362C120.059 210.932 124.135 208.232 125.609 206.329C125.655 206.271 125.698 206.211 125.743 206.152C125.745 203.494 125.727 200.836 125.689 198.178C123.703 199.552 121.478 200.549 119.58 202.055C118.563 204.127 118.254 209.678 117.236 210.869C116.911 211.249 116.782 211.304 116.292 211.328C116.124 211.201 115.971 211.104 115.851 210.92C114.84 209.369 116.483 204.806 116.972 203.087L113.1 205.343C112.789 206.166 112.419 207.756 111.637 208.188C111.029 208.289 110.822 208.38 110.24 208.15C110.056 207.54 110.218 207.065 110.332 206.452C109.8 205.995 108.355 206.524 107.469 206.036C107.251 205.477 107.226 205.457 107.401 204.888C107.772 204.52 108.096 204.394 108.583 204.219C108.982 204.076 109.174 204.027 109.501 203.757C109.208 203.38 108.877 203.063 108.886 202.565C109.932 201.922 111.906 202.455 113.071 202.62L115.894 201.179C113.605 200.675 110.372 200.375 108.513 199.002L108.687 198.375C111.397 197.546 116.115 199.068 118.75 199.873C120.83 198.774 122.927 197.627 124.822 196.245C122.692 195.065 120.628 193.804 118.562 192.521C116.608 192.934 110.303 194.456 108.775 194.042C108.415 193.537 108.418 193.415 108.376 192.795C108.472 192.636 108.509 192.425 108.663 192.318C109.517 191.721 113.69 191.397 115.016 191.025L115.32 190.937C114.237 190.268 113.106 189.657 111.997 189.027C110.804 189.34 109.77 189.678 108.586 189.112L108.473 188.722C108.787 188.119 109.261 187.902 109.837 187.573C109.025 187.224 107.792 186.838 107.253 186.127C106.923 185.693 106.971 185.546 107.088 185.069C107.433 184.785 107.605 184.655 108.063 184.565C108.755 184.431 109.304 184.798 109.836 185.177C110.196 185.434 110.352 185.555 110.784 185.696C110.692 185.07 110.393 184.548 110.647 183.951C111.132 183.66 111.203 183.594 111.765 183.605C112.906 184.533 113.112 186.012 113.471 187.348C114.847 187.964 116.07 188.697 117.318 189.526C116.753 187.658 115.986 185.676 115.684 183.756C115.565 182.999 115.538 182.34 116.028 181.695C116.532 181.463 116.51 181.443 117.04 181.596C118.258 182.871 119.251 188.628 119.721 190.586C121.608 192.007 123.742 193.19 125.758 194.434L125.738 185.946C124.555 184.768 120.2 180.97 120.305 179.461C120.343 178.913 120.53 178.77 120.924 178.447C122.363 178.687 124.777 181.948 125.805 183.052L125.769 179.89C124.905 179.426 124.209 179.049 123.844 178.112C123.864 177.61 123.865 177.353 124.181 176.943C124.807 176.944 125.115 177.279 125.623 177.609C125.785 177.253 125.799 177.334 125.807 177.025C125.835 175.949 125.729 175.051 126.099 174Z" fill="#046BC0"/>
<path d="M8.01151 82.1231L247 82L246.973 84.9648L94.5909 85L8.01064 84.8435C7.98752 83.9377 8.00889 83.0289 8.01151 82.1231Z" fill="#046BC0"/>
<path d="M126.637 135.094L129.469 135C129.959 135.527 130.449 136.061 130.981 136.554C133.227 138.635 136.077 139.665 139.19 140.085C143.597 140.68 148.308 140.42 152.755 140.422L175.116 140.422L248 140.503L247.95 143.854C240.566 143.991 233.156 143.892 225.769 143.917L175.956 144.032L156.904 144.074C152.236 144.086 147.489 143.99 142.838 144.397C135.639 145.028 132.949 146.308 128.337 151.464C127.963 151.785 127.926 151.899 127.407 152C126.046 150.931 125.325 149.32 124.078 148.139C121.234 145.444 115.196 144.774 111.302 144.388C106.848 143.947 102.299 144.066 97.8247 144.055L78.2879 144.011C54.8589 143.826 31.4299 143.764 8 143.827L8.02229 140.5C16.7925 140.175 25.6785 140.412 34.4605 140.406L86.4237 140.432L103.689 140.436C108.213 140.434 112.959 140.648 117.422 139.88C122.296 139.041 124.712 135.514 126.287 135.157C126.403 135.131 126.521 135.115 126.637 135.094Z" fill="#046BC0"/>
<path d="M9 100.347H32.7543V103.12H30.0395V119.067H32.7543V121.84H21.8951V119.067H24.6099V103.12H17.1444V119.067H19.8592V121.84H9V119.067H11.7148V103.12H9V100.347ZM34.7902 121.84V119.067H37.505V103.12H34.7902V100.347H43.6135C45.6668 100.347 47.2757 100.413 48.4407 100.546C49.6117 100.679 50.5222 100.887 51.1724 101.17C51.8288 101.447 52.4308 101.866 52.9798 102.427C53.4715 102.93 53.8421 103.562 54.0909 104.325C54.3455 105.082 54.4728 105.893 54.4728 106.76C54.4728 107.465 54.3824 108.118 54.2013 108.719C54.0258 109.314 53.7743 109.842 53.4463 110.305C53.124 110.761 52.7253 111.171 52.2501 111.535C51.7805 111.894 51.2602 112.197 50.689 112.445C50.1178 112.694 49.4845 112.899 48.7886 113.061C48.0988 113.222 47.383 113.341 46.6424 113.416C45.907 113.485 45.1238 113.52 44.2925 113.52H42.9346V119.067H46.3283V121.84H34.7902ZM42.9346 110.747H44.2925C47.0073 110.747 48.3642 109.475 48.3642 106.933C48.3642 106.494 48.3334 106.096 48.2713 105.737C48.2144 105.379 48.1071 105.032 47.9485 104.697C47.7904 104.362 47.5867 104.082 47.3378 103.857C47.0889 103.631 46.764 103.452 46.3622 103.32C45.9609 103.186 45.497 103.12 44.9709 103.12H42.9346V110.747ZM63.6184 100.329C64.5401 100.11 65.5075 100 66.5195 100C67.5321 100 68.4963 100.11 69.4129 100.329C70.3346 100.543 71.166 100.844 71.907 101.231C72.6533 101.618 73.3404 102.08 73.9685 102.618C74.5962 103.155 75.1392 103.75 75.5974 104.403C76.0552 105.05 76.4427 105.74 76.7598 106.474C77.0821 107.202 77.3223 107.956 77.4808 108.736C77.6389 109.51 77.7184 110.296 77.7184 111.093C77.7184 111.891 77.6389 112.679 77.4808 113.459C77.3223 114.234 77.0821 114.987 76.7598 115.721C76.4427 116.45 76.0552 117.14 75.5974 117.793C75.1392 118.44 74.5962 119.032 73.9685 119.569C73.3404 120.107 72.6533 120.569 71.907 120.956C71.166 121.343 70.3346 121.643 69.4129 121.857C68.4963 122.077 67.5321 122.187 66.5195 122.187C65.5075 122.187 64.5401 122.077 63.6184 121.857C62.7019 121.643 61.8705 121.343 61.1242 120.956C60.3832 120.569 59.6986 120.107 59.071 119.569C58.4433 119.032 57.9004 118.44 57.4421 117.793C56.9838 117.14 56.5938 116.45 56.2715 115.721C55.9544 114.987 55.7172 114.234 55.5587 113.459C55.4001 112.679 55.3211 111.891 55.3211 111.093C55.3211 110.296 55.4001 109.51 55.5587 108.736C55.7172 107.956 55.9544 107.202 56.2715 106.474C56.5938 105.74 56.9838 105.05 57.4421 104.403C57.9004 103.75 58.4433 103.155 59.071 102.618C59.6986 102.08 60.3832 101.618 61.1242 101.231C61.8705 100.844 62.7019 100.543 63.6184 100.329ZM68.386 103.207C67.8261 102.918 67.2041 102.773 66.5195 102.773C65.8354 102.773 65.2104 102.918 64.6448 103.207C64.0849 103.49 63.6071 103.883 63.211 104.385C62.8209 104.888 62.4899 105.492 62.2184 106.197C61.9469 106.896 61.7463 107.656 61.616 108.476C61.4917 109.297 61.4296 110.169 61.4296 111.093C61.4296 112.249 61.5369 113.327 61.7519 114.326C61.9726 115.32 62.2892 116.198 62.7019 116.961C63.115 117.724 63.6466 118.324 64.2969 118.763C64.9532 119.197 65.6938 119.413 66.5195 119.413C67.3453 119.413 68.0837 119.197 68.734 118.763C69.3898 118.324 69.9246 117.724 70.3372 116.961C70.7503 116.198 71.0643 115.32 71.2789 114.326C71.4996 113.327 71.6099 112.249 71.6099 111.093C71.6099 110.169 71.5448 109.297 71.4149 108.476C71.2902 107.656 71.0926 106.896 70.8211 106.197C70.5496 105.492 70.2156 104.888 69.8199 104.385C69.4298 103.883 68.9516 103.49 68.386 103.207ZM81.1117 100.347H98.758V119.067H101.473V126H98.4187V124.613C98.4187 124.33 98.3931 124.038 98.3423 123.738C98.2971 123.437 98.2237 123.14 98.1216 122.846C98.0256 122.551 97.884 122.308 97.6977 122.117C97.5109 121.932 97.2989 121.84 97.0613 121.84H83.4873C83.2497 121.84 83.0377 121.932 82.8509 122.117C82.6642 122.308 82.5199 122.551 82.4183 122.846C82.3223 123.14 82.2485 123.437 82.1976 123.738C82.1525 124.038 82.1299 124.33 82.1299 124.613V126H79.0758V119.067H80.8572C81.649 117.12 82.1864 115.297 82.4691 113.598C82.7519 111.894 82.8935 110.019 82.8935 107.973V103.12H81.1117V100.347ZM87.6442 103.12V107.973C87.6442 110.429 87.5226 112.52 87.2793 114.248C87.0361 115.976 86.5922 117.582 85.9475 119.067H93.3283V103.12H87.6442ZM103.509 100.347H112.332L117.575 110.504L122.538 100.347H130.657V103.12H127.942V119.067H130.657V121.84H119.798V119.067H122.513V106.561L117.083 117.68H115.386L109.617 106.518V119.067H112.332V121.84H103.509V119.067H106.224V103.12H103.509V100.347ZM142.195 100.347H145.928L154.047 119.067H156.108V121.84H145.249V119.067H147.964L146.759 116.293H139.09L137.961 119.067H143.213V121.84H132.354V119.067H134.568L142.195 100.347ZM140.218 113.52H145.554L143.451 108.667C143.179 108.031 142.964 107.407 142.806 106.795C142.585 107.592 142.382 108.216 142.195 108.667L140.218 113.52ZM157.805 121.84V119.067H160.52V103.12H157.805V100.347H166.628C168.681 100.347 170.29 100.413 171.455 100.546C172.626 100.679 173.537 100.887 174.187 101.17C174.843 101.447 175.446 101.866 175.994 102.427C176.486 102.93 176.857 103.562 177.105 104.325C177.36 105.082 177.487 105.893 177.487 106.76C177.487 107.465 177.397 108.118 177.216 108.719C177.04 109.314 176.789 109.842 176.461 110.305C176.139 110.761 175.74 111.171 175.265 111.535C174.795 111.894 174.275 112.197 173.704 112.445C173.132 112.694 172.499 112.899 171.803 113.061C171.113 113.222 170.398 113.341 169.657 113.416C168.922 113.485 168.138 113.52 167.307 113.52H165.95V119.067H169.343V121.84H157.805ZM165.95 110.747H167.307C170.022 110.747 171.379 109.475 171.379 106.933C171.379 106.494 171.348 106.096 171.286 105.737C171.229 105.379 171.122 105.032 170.964 104.697C170.805 104.362 170.601 104.082 170.352 103.857C170.103 103.631 169.779 103.452 169.377 103.32C168.975 103.186 168.511 103.12 167.985 103.12H165.95V110.747ZM195.643 100C196.451 100 197.136 100.078 197.696 100.234C198.256 100.39 198.77 100.624 199.24 100.936C200.529 101.797 201.174 103.473 201.174 105.963C201.174 106.5 201.117 106.988 201.004 107.428C200.891 107.861 200.739 108.222 200.546 108.511C200.354 108.794 200.125 109.033 199.859 109.23C199.599 109.427 199.327 109.568 199.045 109.655C198.762 109.735 198.465 109.776 198.154 109.776C197.401 109.776 196.76 109.507 196.228 108.97C195.702 108.427 195.439 107.771 195.439 107.003C195.439 106.24 195.702 105.587 196.228 105.044C196.76 104.501 197.401 104.229 198.154 104.229C198.176 104.12 198.188 104.004 198.188 103.883C198.188 103.461 198.049 103.126 197.772 102.878C197.495 102.623 197.159 102.496 196.762 102.496C196.236 102.496 195.821 102.736 195.515 103.215C195.21 103.695 195.026 104.38 194.964 105.269C194.845 106.933 194.497 108.314 193.92 109.412C193.349 110.51 192.586 111.316 191.63 111.83C192.235 111.865 192.767 111.931 193.225 112.03C193.688 112.122 194.141 112.272 194.582 112.48C195.023 112.682 195.397 112.945 195.702 113.269C196.007 113.592 196.273 114.008 196.5 114.517C196.732 115.019 196.898 115.612 197 116.293C197.028 116.478 197.062 116.718 197.102 117.013C197.142 117.302 197.172 117.527 197.195 117.689C197.218 117.845 197.249 118.032 197.288 118.252C197.328 118.466 197.365 118.63 197.399 118.746C197.433 118.862 197.475 118.977 197.526 119.093C197.577 119.208 197.633 119.292 197.696 119.344C197.764 119.39 197.837 119.413 197.916 119.413C198.092 119.413 198.241 119.332 198.366 119.171C198.496 119.009 198.601 118.769 198.68 118.451C198.759 118.128 198.818 117.833 198.858 117.567C198.897 117.302 198.943 116.955 198.994 116.527C199.005 116.423 199.013 116.345 199.019 116.293L201.411 116.545C201.355 117.105 201.304 117.541 201.259 117.854C201.219 118.165 201.151 118.552 201.055 119.015C200.959 119.477 200.849 119.835 200.724 120.089C200.6 120.344 200.428 120.627 200.207 120.939C199.992 121.245 199.74 121.476 199.452 121.632C199.163 121.782 198.807 121.912 198.383 122.022C197.964 122.132 197.489 122.187 196.957 122.187C196.573 122.187 196.219 122.169 195.897 122.135C195.575 122.1 195.275 122.042 194.998 121.961C194.727 121.88 194.478 121.791 194.251 121.693C194.025 121.595 193.813 121.462 193.615 121.294C193.417 121.127 193.239 120.959 193.081 120.791C192.928 120.618 192.778 120.401 192.631 120.141C192.484 119.881 192.354 119.63 192.241 119.388C192.133 119.139 192.017 118.839 191.893 118.486C191.768 118.128 191.658 117.787 191.562 117.464C191.466 117.14 191.355 116.75 191.231 116.293C191.078 115.739 190.934 115.303 190.799 114.985C190.668 114.661 190.501 114.381 190.298 114.144C190.094 113.907 189.851 113.745 189.568 113.659C189.291 113.566 188.94 113.52 188.516 113.52H187.159V119.067H189.874V121.84H179.015V119.067H181.729V103.12H179.015V100.347H188.856V103.12H187.159V110.747H187.837C188.086 110.741 188.307 110.643 188.499 110.452C188.697 110.256 188.861 110.01 188.991 109.715C189.127 109.415 189.251 109.014 189.365 108.511C189.478 108.008 189.568 107.52 189.636 107.046C189.71 106.566 189.789 105.974 189.874 105.269C189.992 104.253 190.23 103.383 190.586 102.661C190.943 101.939 191.384 101.398 191.91 101.04C192.911 100.347 194.155 100 195.643 100ZM203.448 100.347H221.772V107.28H218.718V105.893C218.718 105.61 218.693 105.319 218.642 105.018C218.597 104.718 218.523 104.42 218.421 104.125C218.325 103.831 218.184 103.591 217.997 103.406C217.811 103.215 217.599 103.12 217.361 103.12H211.592V110.747H214.646V107.627H217.361V116.64H214.646V113.52H211.592V119.067H217.7C217.938 119.067 218.15 118.974 218.337 118.789C218.523 118.599 218.665 118.356 218.761 118.061C218.863 117.767 218.936 117.469 218.981 117.169C219.032 116.868 219.058 116.576 219.058 116.293V114.907H222.112V121.84H203.448V119.067H206.163V103.12H203.448V100.347ZM224.318 100.347H244V107.28H240.946V105.893C240.946 105.61 240.92 105.319 240.869 105.018C240.824 104.718 240.751 104.42 240.649 104.125C240.553 103.831 240.411 103.591 240.225 103.406C240.038 103.215 239.826 103.12 239.589 103.12H236.874V119.067H239.589V121.84H228.729V119.067H231.444V103.12H228.729C228.492 103.12 228.28 103.215 228.093 103.406C227.906 103.591 227.762 103.831 227.66 104.125C227.564 104.42 227.491 104.718 227.44 105.018C227.395 105.319 227.372 105.61 227.372 105.893V107.28H224.318V100.347Z" fill="#6D96FF"/>
<path d="M103.384 67.1259H104.712L101.545 70.3741L104.975 73.8741H103.564L100.217 70.4496V73.8741H99V67.1259H100.217V70.3993L103.384 67.1259ZM109.128 67.0126C110.032 67.0126 110.7 67.1932 111.134 67.554C111.567 67.9147 111.784 68.4899 111.784 69.2788V73.8741H110.899L110.663 72.9173H110.608C110.396 73.1608 110.175 73.3662 109.944 73.5342C109.723 73.6935 109.465 73.8112 109.17 73.8867C108.884 73.9622 108.533 74 108.119 74C107.676 74 107.275 73.9288 106.915 73.786C106.565 73.6432 106.288 73.4252 106.085 73.1313C105.883 72.8291 105.781 72.4514 105.781 71.9982C105.781 71.3266 106.072 70.8104 106.652 70.4496C107.233 70.0802 108.128 69.8788 109.336 69.8453L110.594 69.8075V69.4047C110.594 68.8425 110.461 68.4522 110.193 68.2338C109.926 68.0155 109.548 67.9065 109.059 67.9065C108.672 67.9065 108.303 67.9612 107.953 68.0701C107.602 68.1709 107.275 68.2885 106.971 68.4227L106.597 67.5917C106.92 67.4324 107.302 67.2978 107.745 67.1888C108.188 67.0712 108.649 67.0126 109.128 67.0126ZM109.488 70.6133C108.566 70.6467 107.925 70.7813 107.565 71.0162C107.215 71.2511 107.04 71.5827 107.04 72.0108C107.04 72.3885 107.164 72.6655 107.413 72.8417C107.671 73.018 107.999 73.1061 108.395 73.1061C109.022 73.1061 109.543 72.9507 109.958 72.6403C110.373 72.3212 110.58 71.8345 110.58 71.1799V70.5755L109.488 70.6133ZM115.139 69.5809C115.139 69.9756 115.258 70.2691 115.498 70.4622C115.747 70.6467 116.102 70.7392 116.563 70.7392C117.024 70.7392 117.444 70.6763 117.822 70.5504C118.2 70.4162 118.587 70.2399 118.984 70.0216V67.1259H120.201V73.8741H118.984V70.8651C118.569 71.1086 118.158 71.3014 117.753 71.4442C117.356 71.5784 116.877 71.6457 116.314 71.6457C115.558 71.6457 114.968 71.4651 114.544 71.1043C114.129 70.7435 113.921 70.2608 113.921 69.6565V67.1259H115.139V69.5809ZM125.419 67C126.055 67 126.599 67.1259 127.051 67.3777C127.512 67.6295 127.862 67.9863 128.102 68.4478C128.351 68.9011 128.476 69.4342 128.476 70.0468V70.714H123.4C123.418 71.4777 123.63 72.0611 124.036 72.464C124.451 72.8586 125.027 73.0558 125.765 73.0558C126.235 73.0558 126.65 73.018 127.009 72.9424C127.378 72.8586 127.756 72.741 128.144 72.5899V73.5594C127.765 73.7104 127.392 73.8194 127.023 73.8867C126.654 73.9622 126.216 74 125.709 74C125.008 74 124.386 73.8698 123.842 73.6097C123.307 73.3496 122.888 72.9633 122.584 72.4514C122.288 71.9309 122.141 71.2975 122.141 70.5504C122.141 69.8119 122.275 69.1781 122.542 68.6493C122.819 68.1205 123.201 67.7133 123.69 67.4281C124.188 67.1428 124.764 67 125.419 67ZM125.405 67.9065C124.824 67.9065 124.363 68.0784 124.022 68.4227C123.69 68.7583 123.492 69.2284 123.427 69.8327H127.203C127.203 69.4468 127.138 69.1108 127.009 68.8255C126.88 68.5403 126.682 68.3176 126.415 68.1583C126.156 67.9903 125.82 67.9065 125.405 67.9065ZM133.336 74C132.681 74 132.096 73.8784 131.58 73.6349C131.073 73.3914 130.672 73.0137 130.376 72.5018C130.091 71.9899 129.948 71.3353 129.948 70.5378C129.948 69.7068 130.1 69.0313 130.404 68.5108C130.708 67.9903 131.119 67.6086 131.635 67.3651C132.161 67.1216 132.755 67 133.419 67C133.797 67 134.161 67.0378 134.512 67.1133C134.862 67.1806 135.148 67.2644 135.369 67.3651L134.996 68.2842C134.775 68.2086 134.517 68.1374 134.221 68.0701C133.926 68.0029 133.65 67.9694 133.392 67.9694C132.894 67.9694 132.484 68.0658 132.161 68.259C131.838 68.4522 131.598 68.7374 131.441 69.1151C131.285 69.4928 131.206 69.963 131.206 70.5252C131.206 71.0622 131.285 71.5198 131.441 71.8975C131.598 72.2752 131.833 72.5604 132.147 72.7536C132.46 72.9468 132.852 73.0432 133.322 73.0432C133.728 73.0432 134.083 73.0054 134.387 72.9299C134.701 72.8543 134.987 72.7619 135.245 72.6529V73.6349C134.996 73.7525 134.719 73.8407 134.415 73.8993C134.12 73.9666 133.76 74 133.336 74ZM142.125 68.0575H139.705V73.8741H138.502V68.0575H136.109V67.1259H142.125V68.0575ZM149.547 68.8255C149.547 69.2453 149.409 69.5727 149.132 69.8075C148.856 70.0424 148.501 70.2022 148.067 70.286V70.3363C148.528 70.3949 148.929 70.546 149.27 70.7896C149.611 71.0244 149.782 71.3939 149.782 71.8975C149.782 72.1827 149.722 72.4471 149.602 72.6906C149.492 72.9342 149.317 73.1439 149.077 73.3201C148.837 73.4964 148.528 73.6349 148.15 73.7356C147.772 73.8281 147.316 73.8741 146.781 73.8741H143.586V67.1259H146.767C147.293 67.1259 147.763 67.1806 148.178 67.2896C148.602 67.3903 148.934 67.5665 149.174 67.8183C149.423 68.0619 149.547 68.3975 149.547 68.8255ZM148.524 71.8975C148.524 71.5115 148.362 71.2345 148.04 71.0665C147.717 70.8986 147.242 70.8147 146.615 70.8147H144.803V72.9802H146.643C147.251 72.9802 147.717 72.9003 148.04 72.741C148.362 72.573 148.524 72.2921 148.524 71.8975ZM148.316 68.964C148.316 68.6449 148.187 68.4144 147.929 68.2716C147.68 68.1205 147.27 68.045 146.698 68.045H144.803V69.8957H146.477C147.076 69.8957 147.533 69.8201 147.846 69.6691C148.159 69.518 148.316 69.2831 148.316 68.964ZM158 70.4874C158 71.0496 157.917 71.5493 157.751 71.9856C157.595 72.4137 157.364 72.7788 157.059 73.0809C156.765 73.3831 156.4 73.614 155.967 73.7734C155.543 73.9245 155.068 74 154.542 74C154.054 74 153.602 73.9245 153.187 73.7734C152.772 73.614 152.412 73.3831 152.108 73.0809C151.804 72.7788 151.564 72.4137 151.389 71.9856C151.223 71.5493 151.14 71.0496 151.14 70.4874C151.14 69.7403 151.278 69.1108 151.555 68.5989C151.831 68.0784 152.228 67.6842 152.744 67.4155C153.261 67.1385 153.874 67 154.584 67C155.257 67 155.847 67.1385 156.354 67.4155C156.871 67.6842 157.272 68.0784 157.557 68.5989C157.853 69.1108 158 69.7403 158 70.4874ZM152.398 70.4874C152.398 71.0162 152.472 71.4777 152.62 71.8723C152.777 72.2583 153.016 72.5565 153.339 72.7662C153.662 72.9759 154.072 73.0809 154.57 73.0809C155.068 73.0809 155.478 72.9759 155.801 72.7662C156.124 72.5565 156.359 72.2583 156.506 71.8723C156.663 71.4777 156.741 71.0162 156.741 70.4874C156.741 69.9504 156.663 69.4928 156.506 69.1151C156.35 68.7374 156.11 68.4478 155.787 68.2464C155.474 68.0367 155.064 67.9316 154.556 67.9316C153.8 67.9316 153.252 68.1583 152.91 68.6115C152.569 69.0647 152.398 69.6899 152.398 70.4874Z" fill="#6D96FF"/>
<path d="M62.9999 164.074C62.4205 164.074 61.9023 163.951 61.4449 163.705C60.9962 163.459 60.6411 163.077 60.3796 162.56C60.1268 162.042 60 161.381 60 160.575C60 159.735 60.1347 159.052 60.4041 158.527C60.6735 158.001 61.0369 157.615 61.4938 157.369C61.9591 157.123 62.4857 157 63.0734 157C63.4084 157 63.7307 157.038 64.0407 157.115C64.3512 157.182 64.604 157.267 64.7999 157.369L64.4693 158.298C64.2734 158.221 64.0451 158.149 63.7836 158.081C63.5225 158.014 63.2776 157.98 63.0489 157.98C62.6081 157.98 62.2451 158.077 61.9591 158.272C61.6736 158.467 61.4615 158.756 61.3224 159.137C61.1838 159.519 61.1143 159.994 61.1143 160.562C61.1143 161.105 61.1838 161.567 61.3224 161.949C61.4615 162.331 61.6696 162.619 61.9469 162.814C62.2246 163.009 62.5714 163.107 62.9877 163.107C63.3471 163.107 63.6611 163.069 63.9305 162.992C64.2082 162.916 64.4614 162.823 64.6897 162.712V163.705C64.4693 163.823 64.2244 163.913 63.955 163.972C63.6939 164.04 63.3756 164.074 62.9999 164.074ZM71.9564 160.524C71.9564 161.093 71.8829 161.597 71.736 162.038C71.5974 162.471 71.3931 162.84 71.1238 163.145C70.8627 163.45 70.5404 163.683 70.1564 163.845C69.7812 163.997 69.3605 164.074 68.8952 164.074C68.4627 164.074 68.0626 163.997 67.6953 163.845C67.3279 163.683 67.0096 163.45 66.7402 163.145C66.4708 162.84 66.2587 162.471 66.1035 162.038C65.9565 161.597 65.8831 161.093 65.8831 160.524C65.8831 159.769 66.0055 159.133 66.2504 158.616C66.4953 158.09 66.8465 157.691 67.3035 157.42C67.7609 157.14 68.3036 157 68.932 157C69.528 157 70.0506 157.14 70.4993 157.42C70.9567 157.691 71.3118 158.09 71.5646 158.616C71.8261 159.133 71.9564 159.769 71.9564 160.524ZM66.9973 160.524C66.9973 161.059 67.0629 161.525 67.1932 161.924C67.3323 162.314 67.5444 162.615 67.83 162.827C68.116 163.039 68.4789 163.145 68.9197 163.145C69.3605 163.145 69.7239 163.039 70.0095 162.827C70.2955 162.615 70.5037 162.314 70.634 161.924C70.773 161.525 70.8421 161.059 70.8421 160.524C70.8421 159.981 70.773 159.519 70.634 159.137C70.4954 158.756 70.2833 158.463 69.9973 158.26C69.72 158.047 69.3566 157.941 68.9075 157.941C68.2384 157.941 67.7526 158.171 67.4504 158.629C67.1486 159.087 66.9973 159.719 66.9973 160.524ZM74.9804 160.461L72.7151 157.127H73.9396L75.6293 159.697L77.3068 157.127H78.519L76.2538 160.461L78.6415 163.947H77.417L75.6293 161.224L73.8171 163.947H72.6049L74.9804 160.461ZM83.0285 157C83.8367 157 84.4856 157.293 84.9754 157.878C85.4735 158.463 85.7223 159.345 85.7223 160.524C85.7223 161.296 85.6082 161.949 85.3795 162.483C85.1591 163.009 84.8447 163.408 84.4367 163.679C84.0365 163.942 83.5634 164.074 83.0163 164.074C82.6818 164.074 82.3835 164.027 82.1224 163.934C81.8614 163.841 81.6366 163.722 81.449 163.578C81.2693 163.425 81.1145 163.26 80.9837 163.081H80.9102C80.9264 163.225 80.943 163.408 80.9592 163.629C80.9754 163.849 80.9837 164.04 80.9837 164.201V167H79.9062V157.127H80.7878L80.9347 158.056H80.9837C81.1145 157.861 81.2693 157.683 81.449 157.522C81.6366 157.36 81.857 157.233 82.1102 157.14C82.3713 157.047 82.6774 157 83.0285 157ZM82.8326 157.941C82.3918 157.941 82.0367 158.031 81.7673 158.209C81.498 158.378 81.3021 158.637 81.1796 158.985C81.0572 159.332 80.992 159.774 80.9837 160.308V160.524C80.9837 161.084 81.041 161.559 81.1551 161.949C81.2693 162.339 81.4612 162.636 81.7306 162.84C82.0083 163.043 82.3835 163.145 82.8571 163.145C83.2572 163.145 83.5835 163.031 83.8367 162.802C84.0978 162.573 84.2897 162.263 84.4122 161.873C84.5429 161.474 84.6081 161.02 84.6081 160.511C84.6081 159.731 84.4612 159.108 84.1673 158.641C83.8817 158.175 83.4365 157.941 82.8326 157.941ZM89.9253 157.013C90.7251 157.013 91.3168 157.195 91.7008 157.56C92.0843 157.925 92.2762 158.505 92.2762 159.303V163.947H91.4926L91.2844 162.98H91.2355C91.0474 163.225 90.8515 163.434 90.6477 163.603C90.4518 163.764 90.2231 163.883 89.962 163.959C89.7088 164.036 89.3988 164.074 89.0314 164.074C88.6396 164.074 88.2845 164.002 87.9662 163.858C87.6557 163.713 87.4108 163.493 87.2315 163.196C87.0518 162.891 86.9621 162.509 86.9621 162.051C86.9621 161.373 87.2192 160.851 87.7335 160.486C88.2478 160.113 89.0393 159.909 90.109 159.875L91.2232 159.837V159.43C91.2232 158.862 91.1047 158.467 90.8681 158.247C90.6311 158.026 90.2966 157.916 89.8641 157.916C89.5212 157.916 89.1946 157.971 88.8845 158.081C88.574 158.183 88.2845 158.302 88.0151 158.438L87.6845 157.598C87.9701 157.437 88.309 157.301 88.7008 157.191C89.0927 157.072 89.5007 157.013 89.9253 157.013ZM90.2437 160.651C89.4272 160.685 88.86 160.821 88.5417 161.059C88.2312 161.296 88.0764 161.631 88.0764 162.064C88.0764 162.445 88.1866 162.725 88.407 162.903C88.6352 163.081 88.9252 163.17 89.2763 163.17C89.8313 163.17 90.2926 163.014 90.66 162.7C91.0273 162.378 91.211 161.886 91.211 161.224V160.613L90.2437 160.651ZM95.3807 157.127V159.964H98.9439V157.127H100.021V163.947H98.9439V160.906H95.3807V163.947H94.3032V157.127H95.3807ZM104.634 157C105.197 157 105.679 157.127 106.079 157.382C106.487 157.636 106.797 157.996 107.01 158.463C107.23 158.921 107.34 159.46 107.34 160.079V160.753H102.846C102.863 161.525 103.051 162.115 103.41 162.522C103.777 162.92 104.287 163.12 104.94 163.12C105.357 163.12 105.724 163.081 106.042 163.005C106.369 162.92 106.703 162.802 107.046 162.649V163.629C106.712 163.781 106.381 163.892 106.054 163.959C105.728 164.036 105.34 164.074 104.891 164.074C104.271 164.074 103.72 163.942 103.238 163.679C102.765 163.416 102.393 163.026 102.124 162.509C101.863 161.983 101.732 161.343 101.732 160.588C101.732 159.841 101.851 159.201 102.087 158.667C102.332 158.132 102.671 157.721 103.104 157.433C103.544 157.144 104.055 157 104.634 157ZM104.622 157.916C104.108 157.916 103.7 158.09 103.397 158.438C103.104 158.777 102.928 159.252 102.871 159.863H106.214C106.214 159.472 106.156 159.133 106.042 158.845C105.928 158.556 105.752 158.332 105.516 158.171C105.287 158.001 104.989 157.916 104.622 157.916ZM110.089 157.127V159.964H113.652V157.127H114.729V163.947H113.652V160.906H110.089V163.947H109.011V157.127H110.089ZM117.885 157.127V159.964H121.448V157.127H122.526V163.947H121.448V160.906H117.885V163.947H116.807V157.127H117.885ZM130.31 160.524C130.31 161.093 130.236 161.597 130.089 162.038C129.951 162.471 129.746 162.84 129.477 163.145C129.216 163.45 128.893 163.683 128.51 163.845C128.134 163.997 127.714 164.074 127.248 164.074C126.816 164.074 126.416 163.997 126.049 163.845C125.681 163.683 125.363 163.45 125.093 163.145C124.824 162.84 124.612 162.471 124.457 162.038C124.31 161.597 124.236 161.093 124.236 160.524C124.236 159.769 124.359 159.133 124.604 158.616C124.849 158.09 125.2 157.691 125.657 157.42C126.114 157.14 126.657 157 127.285 157C127.881 157 128.403 157.14 128.853 157.42C129.31 157.691 129.665 158.09 129.918 158.616C130.179 159.133 130.31 159.769 130.31 160.524ZM125.351 160.524C125.351 161.059 125.416 161.525 125.546 161.924C125.685 162.314 125.898 162.615 126.183 162.827C126.469 163.039 126.832 163.145 127.273 163.145C127.714 163.145 128.077 163.039 128.363 162.827C128.648 162.615 128.856 162.314 128.987 161.924C129.126 161.525 129.195 161.059 129.195 160.524C129.195 159.981 129.126 159.519 128.987 159.137C128.849 158.756 128.636 158.463 128.351 158.26C128.073 158.047 127.71 157.941 127.261 157.941C126.591 157.941 126.106 158.171 125.804 158.629C125.501 159.087 125.351 159.719 125.351 160.524ZM134.552 157C135.115 157 135.597 157.127 135.997 157.382C136.405 157.636 136.715 157.996 136.927 158.463C137.148 158.921 137.258 159.46 137.258 160.079V160.753H132.764C132.78 161.525 132.968 162.115 133.327 162.522C133.695 162.92 134.205 163.12 134.858 163.12C135.274 163.12 135.642 163.081 135.96 163.005C136.287 162.92 136.621 162.802 136.964 162.649V163.629C136.63 163.781 136.299 163.892 135.972 163.959C135.646 164.036 135.258 164.074 134.809 164.074C134.189 164.074 133.638 163.942 133.156 163.679C132.682 163.416 132.311 163.026 132.042 162.509C131.781 161.983 131.65 161.343 131.65 160.588C131.65 159.841 131.768 159.201 132.005 158.667C132.25 158.132 132.589 157.721 133.021 157.433C133.462 157.144 133.973 157 134.552 157ZM134.54 157.916C134.025 157.916 133.617 158.09 133.315 158.438C133.021 158.777 132.846 159.252 132.789 159.863H136.131C136.131 159.472 136.074 159.133 135.96 158.845C135.846 158.556 135.67 158.332 135.434 158.171C135.205 158.001 134.907 157.916 134.54 157.916ZM147.838 160.461L145.572 157.127H146.797L148.487 159.697L150.164 157.127H151.376L149.111 160.461L151.499 163.947H150.274L148.487 161.224L146.674 163.947H145.462L147.838 160.461ZM158.231 160.524C158.231 161.093 158.157 161.597 158.01 162.038C157.871 162.471 157.667 162.84 157.398 163.145C157.137 163.45 156.814 163.683 156.431 163.845C156.055 163.997 155.635 164.074 155.17 164.074C154.737 164.074 154.337 163.997 153.97 163.845C153.602 163.683 153.284 163.45 153.015 163.145C152.745 162.84 152.533 162.471 152.378 162.038C152.231 161.597 152.157 161.093 152.157 160.524C152.157 159.769 152.28 159.133 152.525 158.616C152.77 158.09 153.12 157.691 153.578 157.42C154.035 157.14 154.577 157 155.206 157C155.802 157 156.325 157.14 156.774 157.42C157.231 157.691 157.586 158.09 157.839 158.616C158.1 159.133 158.231 159.769 158.231 160.524ZM153.272 160.524C153.272 161.059 153.337 161.525 153.468 161.924C153.606 162.314 153.818 162.615 154.104 162.827C154.39 163.039 154.753 163.145 155.194 163.145C155.635 163.145 155.998 163.039 156.284 162.827C156.569 162.615 156.778 162.314 156.908 161.924C157.047 161.525 157.116 161.059 157.116 160.524C157.116 159.981 157.047 159.519 156.908 159.137C156.769 158.756 156.557 158.463 156.272 158.26C155.994 158.047 155.631 157.941 155.182 157.941C154.512 157.941 154.026 158.171 153.725 158.629C153.423 159.087 153.272 159.719 153.272 160.524ZM164.934 163.947H163.844V158.056H161.91C161.828 159.133 161.726 160.053 161.604 160.817C161.481 161.572 161.326 162.187 161.138 162.662C160.95 163.136 160.726 163.484 160.465 163.705C160.203 163.925 159.897 164.036 159.547 164.036C159.44 164.036 159.334 164.027 159.228 164.01C159.13 164.002 159.048 163.981 158.983 163.947V163.107C159.032 163.124 159.085 163.136 159.143 163.145C159.199 163.154 159.257 163.158 159.314 163.158C159.493 163.158 159.657 163.081 159.804 162.929C159.951 162.776 160.081 162.543 160.196 162.229C160.318 161.915 160.428 161.521 160.526 161.046C160.624 160.562 160.71 159.994 160.783 159.341C160.857 158.688 160.922 157.95 160.979 157.127H164.934V163.947ZM172.723 160.524C172.723 161.093 172.65 161.597 172.503 162.038C172.364 162.471 172.16 162.84 171.89 163.145C171.629 163.45 171.307 163.683 170.923 163.845C170.548 163.997 170.127 164.074 169.662 164.074C169.229 164.074 168.829 163.997 168.462 163.845C168.095 163.683 167.776 163.45 167.507 163.145C167.238 162.84 167.025 162.471 166.87 162.038C166.723 161.597 166.65 161.093 166.65 160.524C166.65 159.769 166.772 159.133 167.017 158.616C167.262 158.09 167.613 157.691 168.07 157.42C168.528 157.14 169.07 157 169.699 157C170.295 157 170.817 157.14 171.266 157.42C171.723 157.691 172.078 158.09 172.331 158.616C172.593 159.133 172.723 159.769 172.723 160.524ZM167.764 160.524C167.764 161.059 167.83 161.525 167.96 161.924C168.099 162.314 168.311 162.615 168.597 162.827C168.883 163.039 169.246 163.145 169.686 163.145C170.127 163.145 170.491 163.039 170.776 162.827C171.062 162.615 171.27 162.314 171.401 161.924C171.54 161.525 171.609 161.059 171.609 160.524C171.609 159.981 171.54 159.519 171.401 159.137C171.262 158.756 171.05 158.463 170.764 158.26C170.487 158.047 170.123 157.941 169.674 157.941C169.005 157.941 168.519 158.171 168.217 158.629C167.915 159.087 167.764 159.719 167.764 160.524ZM179.304 157.127V163.005H180.259V166.313H179.218V163.947H174.651V166.313H173.623V163.005H174.149C174.525 162.462 174.835 161.873 175.08 161.237C175.333 160.592 175.521 159.922 175.643 159.226C175.774 158.523 175.843 157.823 175.851 157.127H179.304ZM176.806 158.005C176.774 158.582 176.688 159.18 176.549 159.799C176.41 160.41 176.231 160.995 176.01 161.555C175.798 162.115 175.549 162.598 175.263 163.005H178.263V158.005H176.806ZM187.252 160.524C187.252 161.093 187.178 161.597 187.031 162.038C186.893 162.471 186.688 162.84 186.419 163.145C186.158 163.45 185.835 163.683 185.452 163.845C185.076 163.997 184.656 164.074 184.191 164.074C183.758 164.074 183.358 163.997 182.991 163.845C182.623 163.683 182.305 163.45 182.036 163.145C181.766 162.84 181.554 162.471 181.399 162.038C181.252 161.597 181.178 161.093 181.178 160.524C181.178 159.769 181.301 159.133 181.546 158.616C181.791 158.09 182.142 157.691 182.599 157.42C183.056 157.14 183.599 157 184.227 157C184.823 157 185.345 157.14 185.795 157.42C186.252 157.691 186.607 158.09 186.86 158.616C187.121 159.133 187.252 159.769 187.252 160.524ZM182.293 160.524C182.293 161.059 182.358 161.525 182.489 161.924C182.627 162.314 182.84 162.615 183.125 162.827C183.411 163.039 183.774 163.145 184.215 163.145C184.656 163.145 185.019 163.039 185.305 162.827C185.59 162.615 185.799 162.314 185.929 161.924C186.068 161.525 186.137 161.059 186.137 160.524C186.137 159.981 186.068 159.519 185.929 159.137C185.791 158.756 185.578 158.463 185.293 158.26C185.015 158.047 184.652 157.941 184.203 157.941C183.533 157.941 183.048 158.171 182.746 158.629C182.444 159.087 182.293 159.719 182.293 160.524ZM196 157.127V163.947H195.033V159.595C195.033 159.417 195.037 159.231 195.045 159.036C195.061 158.841 195.078 158.65 195.094 158.463H195.057L192.914 163.947H192.008L189.927 158.463H189.89C189.906 158.65 189.914 158.841 189.914 159.036C189.923 159.231 189.927 159.43 189.927 159.634V163.947H188.959V157.127H190.392L192.461 162.611L194.567 157.127H196Z" fill="#6D96FF"/>
</svg>
