<svg width="298" height="301" viewBox="0 0 298 301" fill="none" xmlns="http://www.w3.org/2000/svg">
<path d="M133.707 91.8755C134.113 92.3105 134.148 93.9441 134.226 94.591C119.004 99.5873 108.347 108.836 99.2113 121.72L97.0759 121.595C96.7852 121.576 96.8049 121.628 96.579 121.41C96.632 121.21 96.6833 121.027 96.7756 120.84C97.7717 118.818 99.4703 116.746 100.856 114.954C101.38 114.286 101.916 113.628 102.464 112.981C103.012 112.333 103.572 111.695 104.143 111.068C104.715 110.441 105.297 109.824 105.891 109.218C106.485 108.612 107.09 108.017 107.706 107.433C108.321 106.849 108.948 106.276 109.584 105.715C110.221 105.154 110.868 104.605 111.524 104.068C112.181 103.531 112.848 103.006 113.524 102.493C114.2 101.98 114.885 101.48 115.579 100.992C116.274 100.504 116.977 100.029 117.688 99.5668C118.4 99.1048 119.12 98.6559 119.848 98.2203C120.576 97.7846 121.312 97.3625 122.056 96.9538C122.8 96.5451 123.551 96.1499 124.308 95.7687C125.067 95.3876 125.832 95.0202 126.603 94.6669C127.374 94.3138 128.152 93.9749 128.936 93.65C129.72 93.3251 130.51 93.0148 131.305 92.7189C132.101 92.4233 132.901 92.1421 133.707 91.8755Z" fill="#046BC0"/>
<path d="M167.048 91.9012C172.209 93.42 177.097 95.9583 181.642 98.8077C189.512 103.741 196.438 110.473 201.929 117.939C202.857 119.2 204.202 120.707 204.552 122.241C204.45 122.643 204.366 122.671 204.045 122.945C203.745 123.072 203.103 123.4 202.783 123.281C202.339 123.116 201.192 121.281 200.84 120.803C198.774 117.982 196.556 115.287 194.186 112.717C186.473 104.424 177.229 98.542 166.748 94.4076C166.803 93.5568 166.894 92.7403 167.048 91.9012Z" fill="#046BC0"/>
<path d="M202.785 176.048C203.692 176.062 204.488 176.201 205.37 176.404C201.134 186.14 191.151 195.979 182.156 201.417C177.957 203.955 173.431 205.937 168.891 207.773L167.472 208.161C167.077 207.367 166.852 206.661 166.685 205.796C183.189 199.524 193.459 190.978 202.785 176.048Z" fill="#046BC0"/>
<path d="M96.6721 175.31C97.4087 175.319 97.6375 175.732 98.0245 176.297C99.6475 178.667 101.196 181.073 102.971 183.337C111.464 194.172 120.956 199.689 133.395 204.987C133.113 205.864 132.919 206.573 132.166 207.158L132.028 207.119C131.963 207.102 131.899 207.085 131.835 207.067C129.984 206.548 128.159 205.667 126.403 204.892C115.974 200.292 107.249 193.376 100.265 184.388C98.5416 182.171 96.6698 179.662 95.3998 177.159C95.2108 176.786 95.207 176.512 95.3268 176.113C95.6708 175.636 96.1395 175.515 96.6721 175.31Z" fill="#046BC0"/>
<path d="M149.905 77.4154C150.181 77.5027 150.403 77.5502 150.622 77.7476C150.918 78.0134 150.94 78.6169 150.929 78.991L150.889 80.7315C151.215 80.4509 151.608 80.0507 152.001 79.8746C152.327 79.729 152.686 79.6675 153.021 79.8022C152.972 80.7555 151.627 81.7979 150.973 82.4269L150.914 84.5067C151.844 83.5552 152.894 82.0118 154.043 81.3661C154.366 81.1847 154.499 81.1704 154.844 81.2823L154.931 81.587C154.626 83.1725 152.165 85.2072 151.011 86.4034C151.008 88.3127 151.015 90.2217 151.034 92.1306C152.509 91.235 153.955 90.2946 155.372 89.3094C156.005 87.3072 156.076 85.1123 156.805 83.1734C157.061 82.9607 157.087 82.9824 157.409 83.0088C157.809 83.0416 158.083 83.2065 158.329 83.5095L158.226 83.7755C157.631 85.2787 157.436 87.0743 157.045 88.6622L158.968 87.3219C159.058 86.9228 159.149 86.5244 159.244 86.1268C159.413 85.4187 159.516 84.5442 160.185 84.132C160.572 84.183 160.589 84.2217 160.877 84.4915C160.989 85.1797 160.705 85.9262 160.537 86.5938C161.157 86.2115 161.821 85.7597 162.492 85.4729C162.859 85.3159 163.273 85.2037 163.657 85.3511L163.677 85.6604C163.035 86.7576 162.081 87.2565 161.03 87.9119C161.54 88.0244 162.179 88.1076 162.652 88.3267C163.1 88.5342 163.349 88.7597 163.51 89.2235C163.416 89.3193 163.357 89.3943 163.226 89.4535C162.205 89.9126 160.679 89.1766 159.765 88.7217C159.21 89.1312 158.606 89.4722 158.015 89.8276C159.204 90.2108 160.41 90.5899 161.579 91.03C162.081 91.2186 162.611 91.4146 162.846 91.9303C162.783 92.2713 162.758 92.4497 162.508 92.6996C161.671 92.7005 157.394 91.1067 156.274 90.7704L152.026 93.5641C153.56 94.6677 155.116 95.7391 156.695 96.7786C157.897 96.4587 161.286 95.2906 162.253 95.3261C162.641 95.3401 162.778 95.4318 163.034 95.7072L162.909 96.0763C162.104 96.7256 158.995 97.5441 157.864 97.9279L160.008 99.0951L160.618 98.885C161.561 98.5663 162.522 98.2124 163.483 98.6849L163.553 98.9351C163.028 99.6845 162.012 99.8152 161.182 100.02C161.651 100.274 162.128 100.524 162.583 100.805C163.112 101.131 163.667 101.61 163.82 102.236L163.62 102.448C162.448 102.497 161.589 101.841 160.611 101.273C160.783 102.124 161.015 102.871 160.567 103.681L160.365 103.734C160.321 103.7 160.273 103.671 160.233 103.632C159.559 102.978 159.353 101.321 159.239 100.419L157.39 99.0424C157.487 100.176 158.322 103.085 157.884 103.892C157.544 104.132 157.515 104.165 157.104 104.167C156.511 103.683 155.903 99.0553 155.742 98.1301C154.2 97.1099 152.629 96.1355 151.03 95.2071L151.023 101.34C151.972 102.041 154.836 104.541 154.942 105.713C154.962 105.93 154.714 106.065 154.57 106.205C153.641 106.115 151.763 103.866 151.05 103.158V105.343C151.5 105.779 152.014 106.223 152.398 106.718C152.668 107.064 152.976 107.585 152.929 108.034L152.662 108.107C151.959 107.804 151.446 107.29 150.884 106.786L150.837 108.716C150.748 109.164 150.647 109.459 150.429 109.859L150.214 109.902C149.516 109.218 149.567 107.874 149.54 106.96C149.282 107.194 149.022 107.443 148.739 107.645C148.434 107.862 148.077 108.129 147.704 108.064C147.82 107.1 148.877 106.254 149.524 105.592L149.472 103.259C148.587 104.181 147.716 105.255 146.744 106.077C146.495 106.289 146.328 106.419 145.982 106.331C145.639 106.243 145.545 106.091 145.388 105.811C145.71 104.618 148.449 102.201 149.429 101.286L149.399 95.2174C147.954 96.2258 146.457 97.1477 144.906 97.9836C144.622 99.1399 143.992 103.261 143.586 103.965C143.405 104.279 143.302 104.365 142.954 104.441L142.817 104.314C142.287 102.958 142.905 100.674 143.092 99.2366C142.51 99.6939 141.903 100.12 141.303 100.554C141.067 101.452 140.954 102.843 140.456 103.598C140.088 103.586 140.027 103.586 139.721 103.387C139.487 102.774 139.707 102.032 139.807 101.398C139.189 101.727 138.568 102.083 137.927 102.364C137.453 102.571 136.956 102.682 136.475 102.486L136.475 102.206C137.077 101.188 137.981 100.742 138.972 100.16C138.312 99.8255 137.443 99.6544 137.093 98.9261L137.198 98.6934C138.35 98.3641 139.488 98.8065 140.596 99.1229C141.263 98.745 141.894 98.3196 142.53 97.8942C141.31 97.3475 138.814 97.0197 138.008 96.2304C137.865 95.8414 137.831 95.8461 137.984 95.4673C138.859 95.1687 142.944 96.3567 144.097 96.6125C145.652 95.8801 147.093 94.7044 148.498 93.7182C147.064 92.8639 145.703 91.7738 144.311 90.8404C143.416 91.039 138.574 92.646 138.145 92.5704C138.017 92.5478 137.911 92.4561 137.794 92.399L137.779 92.0521C138.381 90.8849 141.144 90.234 142.4 89.7485C141.831 89.399 141.285 89.0079 140.733 88.6329C139.826 88.9973 138.393 89.813 137.446 89.4219C137.246 89.0808 137.239 89.0756 137.291 88.6847C137.745 88.1715 138.624 88.0182 139.257 87.8023C138.297 87.1824 137.135 86.5748 136.585 85.5286L136.678 85.344C137.757 85.1225 138.778 85.811 139.727 86.2294C139.562 85.6622 139.204 84.7786 139.435 84.2158C139.529 83.9864 139.674 84.0087 139.889 83.9343C140.866 84.4402 140.925 86.2906 141.58 87.1505C142.018 87.727 142.886 88.2353 143.471 88.6721C143.19 87.6298 142.119 84.0802 142.304 83.2262C142.614 82.9584 142.683 82.9452 143.09 82.8743C143.375 83.0472 143.481 83.0984 143.615 83.4201C143.984 84.3049 144.658 88.0534 144.953 89.2575C146.413 90.3052 147.877 91.332 149.474 92.1637C149.52 90.2284 149.494 88.2878 149.492 86.3515C148.293 85.1012 146.191 83.3671 145.682 81.6775C145.589 81.3705 145.567 81.3336 145.717 81.0409C147.013 81.2404 148.696 83.5663 149.562 84.5389L149.537 82.2347C148.884 81.6758 147.756 80.8109 147.543 79.9669C147.773 79.7076 147.821 79.7307 148.136 79.6305C148.728 79.7512 149.129 80.1933 149.573 80.5792C149.552 79.4943 149.489 78.442 149.905 77.4154Z" fill="#046BC0"/>
<path d="M149.79 191.222C150.251 191.278 150.517 191.313 150.894 191.617C151.174 192.089 151.016 192.467 151.022 192.978C151.026 193.297 151.038 193.562 151.271 193.789C151.668 193.592 152.016 193.448 152.448 193.347L152.577 193.503C152.399 194.454 151.825 194.901 151.124 195.484L151.126 197.932C152.172 196.782 153.154 195.589 154.136 194.384C154.51 194.679 154.833 195.026 155.166 195.366C154.032 197.049 152.597 198.514 151.117 199.89C151.121 201.903 151.106 203.916 151.074 205.928C152.545 204.849 154.073 203.902 155.663 203.012C156.099 200.795 156.546 198.581 157.006 196.369C157.395 196.511 157.947 196.619 158.241 196.914C158.457 197.13 157.612 201.503 157.541 202.117C158.296 201.658 159.007 201.124 159.727 200.613C159.825 199.81 159.861 198.753 160.532 198.196C160.789 197.982 160.839 197.981 161.154 198C161.198 198.058 161.246 198.113 161.286 198.174C161.686 198.789 161.441 199.379 161.27 200.034C162.114 199.547 162.731 198.782 163.769 198.854C164.121 199.049 164.173 199.051 164.341 199.411C164.175 200.667 162.718 200.333 162.22 201.187C162.425 201.274 162.637 201.358 162.832 201.465C163.147 201.639 163.283 201.702 163.381 202.067C163.219 202.37 163.041 202.456 162.747 202.621C161.908 202.714 161.359 202.324 160.723 201.822C159.869 202.402 159.009 202.975 158.146 203.54C159.377 203.691 162.855 203.734 163.592 204.716C163.749 204.924 163.679 205.033 163.656 205.274C163.45 205.452 163.423 205.508 163.141 205.574C161.967 205.848 157.576 204.955 156.543 204.345C154.935 205.225 153.372 206.216 151.8 207.159C153.285 208.136 154.755 209.129 156.316 209.982C157.548 209.749 162.923 208.223 163.642 208.361L163.807 208.62C163.835 208.966 163.794 209.216 163.604 209.517C163.231 210.109 158.801 210.956 157.951 211.182C158.792 211.668 159.649 212.144 160.345 212.828C161.123 212.46 162.237 211.792 163.088 211.817C163.363 212.112 163.379 212.461 163.444 212.843C163.213 213.222 162.267 213.385 161.814 213.567L161.832 213.736C162.453 213.997 163.168 214.235 163.743 214.582C164.087 214.79 164.2 214.955 164.301 215.332C164.137 215.75 164.109 215.86 163.764 216.138C162.863 216.291 162.101 215.589 161.398 215.11C161.418 215.813 161.613 217.03 161.137 217.556C160.943 217.604 160.807 217.704 160.63 217.577C159.97 217.108 159.792 215.075 159.641 214.292L157.452 212.498C157.61 213.539 157.747 214.594 157.959 215.625C158.078 216.203 158.366 216.9 158.38 217.484C158.388 217.783 158.305 217.958 158.178 218.221C157.854 218.476 157.81 218.52 157.404 218.56C156.418 217.912 155.917 212.737 155.601 211.347C154.063 210.402 152.526 209.461 151.032 208.445L151.036 214.428C152.388 215.924 153.945 217.232 155.322 218.71L154.264 219.783C153.145 218.759 152.098 217.665 151.123 216.503C151.108 217.506 150.986 218.652 151.186 219.63L151.402 219.757C151.939 220.203 152.562 220.739 152.85 221.381C152.768 221.76 152.797 221.79 152.493 222.019C152.017 222.03 151.717 221.855 151.299 221.64L151.123 221.548C150.902 221.888 151.013 222.708 150.959 223.158C150.742 223.418 150.65 223.541 150.277 223.552C148.907 223.593 149.778 222.011 149.247 221.495C149.014 221.687 148.85 221.778 148.561 221.866L148.282 221.709C148.158 221.36 148.129 221.029 148.284 220.682C148.487 220.228 148.988 220.06 149.411 219.862L149.402 216.62C148.619 217.494 147.846 218.618 146.919 219.325C146.544 219.611 146.212 219.8 145.73 219.726L145.577 219.502C145.585 217.756 148.423 215.816 149.449 214.449C149.481 214.407 149.511 214.365 149.542 214.322C149.544 212.412 149.531 210.503 149.505 208.593C148.122 209.58 146.573 210.297 145.252 211.379C144.544 212.867 144.329 216.855 143.62 217.711C143.394 217.984 143.304 218.024 142.963 218.041C142.846 217.95 142.739 217.88 142.656 217.748C141.952 216.633 143.096 213.355 143.436 212.12L140.741 213.741C140.524 214.332 140.267 215.474 139.722 215.785C139.299 215.857 139.155 215.923 138.75 215.757C138.621 215.319 138.734 214.978 138.814 214.537C138.443 214.209 137.437 214.589 136.821 214.239C136.669 213.837 136.651 213.823 136.773 213.414C137.032 213.15 137.257 213.059 137.596 212.933C137.874 212.83 138.008 212.795 138.235 212.601C138.031 212.33 137.801 212.103 137.807 211.745C138.535 211.283 139.91 211.665 140.72 211.784L142.686 210.749C141.092 210.387 138.842 210.171 137.547 209.185L137.668 208.734C139.555 208.139 142.839 209.233 144.674 209.81C146.122 209.021 147.582 208.197 148.901 207.204C147.418 206.356 145.981 205.45 144.543 204.529C143.183 204.825 138.794 205.919 137.73 205.621C137.479 205.258 137.482 205.171 137.452 204.725C137.519 204.611 137.545 204.46 137.652 204.383C138.246 203.954 141.152 203.721 142.075 203.454L142.287 203.391C141.532 202.909 140.745 202.471 139.973 202.019C139.142 202.243 138.423 202.486 137.598 202.079L137.519 201.799C137.738 201.366 138.068 201.21 138.469 200.974C137.904 200.723 137.045 200.446 136.67 199.935C136.441 199.623 136.474 199.517 136.555 199.174C136.796 198.971 136.915 198.877 137.234 198.813C137.716 198.716 138.098 198.98 138.468 199.252C138.719 199.437 138.828 199.523 139.129 199.625C139.064 199.175 138.856 198.8 139.033 198.371C139.371 198.162 139.42 198.115 139.811 198.122C140.606 198.789 140.749 199.852 140.999 200.812C141.957 201.254 142.808 201.781 143.677 202.377C143.284 201.034 142.75 199.61 142.539 198.231C142.456 197.687 142.438 197.214 142.779 196.75C143.13 196.584 143.115 196.569 143.484 196.679C144.331 197.596 145.023 201.731 145.35 203.138C146.664 204.16 148.149 205.009 149.553 205.903L149.539 199.805C148.715 198.958 145.683 196.23 145.757 195.145C145.783 194.751 145.913 194.649 146.188 194.417C147.189 194.589 148.87 196.932 149.586 197.726L149.56 195.453C148.959 195.12 148.474 194.849 148.221 194.176C148.234 193.815 148.235 193.631 148.455 193.336C148.891 193.337 149.105 193.578 149.459 193.815C149.572 193.559 149.581 193.617 149.587 193.395C149.606 192.622 149.533 191.977 149.79 191.222Z" fill="#046BC0"/>
<path d="M70.2054 127.057L230.723 126.959L230.705 129.329L128.357 129.357L70.2048 129.232C70.1892 128.508 70.2036 127.781 70.2054 127.057Z" fill="#046BC0"/>
<path d="M149.566 163.826L151.464 163.757C151.793 164.143 152.122 164.533 152.478 164.894C153.984 166.416 155.896 167.169 157.982 167.477C160.937 167.912 164.097 167.722 167.078 167.723L182.071 167.723L230.94 167.782L230.907 170.233C225.956 170.333 220.987 170.261 216.034 170.279L182.635 170.364L169.86 170.394C166.73 170.403 163.547 170.332 160.429 170.63C155.601 171.092 153.798 172.028 150.706 175.799C150.455 176.034 150.43 176.117 150.082 176.191C149.17 175.409 148.686 174.231 147.85 173.367C145.943 171.396 141.894 170.906 139.284 170.624C136.297 170.301 133.247 170.388 130.247 170.38L117.147 170.348C101.438 170.212 85.7289 170.168 70.019 170.213L70.034 167.78C75.9144 167.542 81.8726 167.716 87.7609 167.711L122.603 167.731L134.179 167.733C137.213 167.732 140.395 167.889 143.387 167.327C146.655 166.713 148.275 164.134 149.331 163.872C149.409 163.853 149.488 163.841 149.566 163.826Z" fill="#046BC0"/>
<path d="M70.6533 140.932H86.6749V142.764H84.8438V153.292H86.6749V155.123H79.3506V153.292H81.1817V142.764H76.1464V153.292H77.9775V155.123H70.6533V153.292H72.4843V142.764H70.6533V140.932ZM88.048 155.123V153.292H89.8791V142.764H88.048V140.932H93.9991C95.3839 140.932 96.4691 140.976 97.2548 141.064C98.0447 141.152 98.6588 141.289 99.0973 141.476C99.54 141.659 99.9461 141.936 100.316 142.306C100.648 142.638 100.898 143.056 101.066 143.559C101.237 144.059 101.323 144.595 101.323 145.167C101.323 145.632 101.262 146.064 101.14 146.46C101.022 146.853 100.852 147.202 100.631 147.507C100.414 147.809 100.145 148.079 99.8242 148.32C99.5075 148.556 99.1565 148.757 98.7713 148.921C98.386 149.085 97.9588 149.22 97.4895 149.327C97.0243 149.434 96.5415 149.512 96.042 149.562C95.546 149.607 95.0177 149.63 94.457 149.63H93.5412V153.292H95.8301V155.123H88.048ZM93.5412 147.799H94.457C96.288 147.799 97.2033 146.96 97.2033 145.281C97.2033 144.992 97.1825 144.728 97.1406 144.492C97.1022 144.255 97.0298 144.026 96.9229 143.805C96.8163 143.584 96.6789 143.399 96.511 143.25C96.3431 143.101 96.124 142.983 95.853 142.895C95.5823 142.807 95.2694 142.764 94.9146 142.764H93.5412V147.799ZM107.492 140.921C108.113 140.776 108.766 140.704 109.448 140.704C110.131 140.704 110.782 140.776 111.4 140.921C112.022 141.062 112.582 141.261 113.082 141.516C113.586 141.772 114.049 142.077 114.473 142.432C114.896 142.787 115.262 143.18 115.571 143.611C115.88 144.038 116.141 144.494 116.355 144.978C116.573 145.459 116.735 145.957 116.842 146.472C116.948 146.983 117.002 147.501 117.002 148.028C117.002 148.554 116.948 149.075 116.842 149.59C116.735 150.101 116.573 150.599 116.355 151.084C116.141 151.564 115.88 152.02 115.571 152.451C115.262 152.878 114.896 153.269 114.473 153.624C114.049 153.979 113.586 154.284 113.082 154.54C112.582 154.795 112.022 154.994 111.4 155.135C110.782 155.28 110.131 155.352 109.448 155.352C108.766 155.352 108.113 155.28 107.492 155.135C106.874 154.994 106.313 154.795 105.81 154.54C105.31 154.284 104.848 153.979 104.425 153.624C104.001 153.269 103.635 152.878 103.326 152.451C103.017 152.02 102.754 151.564 102.536 151.084C102.323 150.599 102.163 150.101 102.056 149.59C101.949 149.075 101.895 148.554 101.895 148.028C101.895 147.501 101.949 146.983 102.056 146.472C102.163 145.957 102.323 145.459 102.536 144.978C102.754 144.494 103.017 144.038 103.326 143.611C103.635 143.18 104.001 142.787 104.425 142.432C104.848 142.077 105.31 141.772 105.81 141.516C106.313 141.261 106.874 141.062 107.492 140.921ZM110.707 142.821C110.33 142.63 109.91 142.535 109.448 142.535C108.987 142.535 108.565 142.63 108.184 142.821C107.806 143.008 107.484 143.267 107.217 143.599C106.954 143.931 106.731 144.33 106.548 144.795C106.364 145.257 106.229 145.758 106.141 146.3C106.057 146.842 106.015 147.418 106.015 148.028C106.015 148.791 106.088 149.502 106.233 150.162C106.382 150.818 106.595 151.398 106.874 151.902C107.152 152.405 107.511 152.802 107.949 153.092C108.392 153.378 108.892 153.521 109.448 153.521C110.005 153.521 110.503 153.378 110.942 153.092C111.384 152.802 111.745 152.405 112.023 151.902C112.302 151.398 112.514 150.818 112.659 150.162C112.807 149.502 112.882 148.791 112.882 148.028C112.882 147.418 112.838 146.842 112.75 146.3C112.666 145.758 112.533 145.257 112.35 144.795C112.167 144.33 111.941 143.931 111.674 143.599C111.411 143.267 111.089 143.008 110.707 142.821ZM119.29 140.932H131.192V153.292H133.023V157.87H130.964V156.954C130.964 156.767 130.946 156.575 130.912 156.376C130.882 156.178 130.832 155.982 130.763 155.787C130.698 155.593 130.603 155.432 130.477 155.306C130.351 155.184 130.208 155.123 130.048 155.123H120.893C120.732 155.123 120.59 155.184 120.464 155.306C120.338 155.432 120.24 155.593 120.172 155.787C120.107 155.982 120.057 156.178 120.023 156.376C119.992 156.575 119.977 156.767 119.977 156.954V157.87H117.917V153.292H119.119C119.653 152.007 120.015 150.803 120.206 149.682C120.397 148.556 120.492 147.318 120.492 145.968V142.764H119.29V140.932ZM123.696 142.764V145.968C123.696 147.589 123.614 148.97 123.45 150.111C123.286 151.251 122.987 152.312 122.552 153.292H127.53V142.764H123.696ZM134.397 140.932H140.348L143.884 147.639L147.231 140.932H152.707V142.764H150.876V153.292H152.707V155.123H145.383V153.292H147.214V145.035L143.552 152.377H142.407L138.517 145.007V153.292H140.348V155.123H134.397V153.292H136.228V142.764H134.397V140.932ZM160.489 140.932H163.007L168.483 153.292H169.873V155.123H162.549V153.292H164.38L163.568 151.461H158.395L157.634 153.292H161.176V155.123H153.852V153.292H155.345L160.489 140.932ZM159.156 149.63H162.755L161.336 146.426C161.153 146.006 161.008 145.594 160.901 145.19C160.753 145.716 160.615 146.128 160.489 146.426L159.156 149.63ZM171.018 155.123V153.292H172.849V142.764H171.018V140.932H176.969C178.354 140.932 179.439 140.976 180.224 141.064C181.014 141.152 181.628 141.289 182.067 141.476C182.51 141.659 182.916 141.936 183.286 142.306C183.618 142.638 183.868 143.056 184.035 143.559C184.207 144.059 184.293 144.595 184.293 145.167C184.293 145.632 184.232 146.064 184.11 146.46C183.991 146.853 183.822 147.202 183.601 147.507C183.383 147.809 183.114 148.079 182.794 148.32C182.477 148.556 182.126 148.757 181.741 148.921C181.356 149.085 180.928 149.22 180.459 149.327C179.994 149.434 179.511 149.512 179.012 149.562C178.516 149.607 177.987 149.63 177.427 149.63H176.511V153.292H178.8V155.123H171.018ZM176.511 147.799H177.427C179.258 147.799 180.173 146.96 180.173 145.281C180.173 144.992 180.152 144.728 180.11 144.492C180.072 144.255 179.999 144.026 179.893 143.805C179.786 143.584 179.648 143.399 179.481 143.25C179.313 143.101 179.094 142.983 178.823 142.895C178.552 142.807 178.239 142.764 177.884 142.764H176.511V147.799ZM196.538 140.704C197.084 140.704 197.545 140.755 197.923 140.858C198.301 140.961 198.648 141.116 198.964 141.322C199.834 141.89 200.269 142.996 200.269 144.641C200.269 144.995 200.231 145.318 200.155 145.608C200.078 145.894 199.975 146.132 199.845 146.323C199.716 146.51 199.561 146.668 199.382 146.798C199.206 146.928 199.023 147.021 198.833 147.078C198.642 147.131 198.442 147.158 198.232 147.158C197.724 147.158 197.292 146.981 196.933 146.626C196.578 146.267 196.401 145.834 196.401 145.327C196.401 144.824 196.578 144.392 196.933 144.034C197.292 143.675 197.724 143.496 198.232 143.496C198.247 143.424 198.255 143.347 198.255 143.267C198.255 142.989 198.161 142.768 197.974 142.604C197.787 142.436 197.561 142.352 197.293 142.352C196.939 142.352 196.658 142.51 196.452 142.827C196.246 143.143 196.122 143.595 196.08 144.183C196 145.281 195.766 146.193 195.377 146.918C194.991 147.643 194.476 148.175 193.832 148.514C194.24 148.537 194.598 148.581 194.907 148.646C195.22 148.707 195.525 148.806 195.823 148.943C196.12 149.077 196.372 149.25 196.578 149.464C196.784 149.678 196.964 149.952 197.116 150.288C197.273 150.62 197.385 151.011 197.454 151.461C197.473 151.583 197.496 151.742 197.522 151.936C197.549 152.127 197.57 152.276 197.585 152.383C197.6 152.485 197.622 152.609 197.648 152.754C197.675 152.896 197.7 153.004 197.723 153.08C197.745 153.157 197.774 153.233 197.808 153.31C197.843 153.386 197.881 153.441 197.923 153.475C197.969 153.506 198.018 153.521 198.072 153.521C198.19 153.521 198.291 153.468 198.375 153.361C198.463 153.254 198.533 153.096 198.587 152.886C198.64 152.672 198.68 152.478 198.707 152.302C198.733 152.127 198.764 151.898 198.798 151.616C198.806 151.547 198.812 151.495 198.815 151.461L200.429 151.627C200.391 151.997 200.357 152.285 200.326 152.491C200.3 152.697 200.254 152.953 200.189 153.258C200.124 153.563 200.05 153.8 199.966 153.968C199.882 154.135 199.765 154.322 199.617 154.528C199.472 154.73 199.302 154.883 199.107 154.986C198.913 155.085 198.672 155.171 198.386 155.243C198.104 155.316 197.784 155.352 197.425 155.352C197.166 155.352 196.927 155.341 196.71 155.318C196.492 155.295 196.29 155.257 196.103 155.203C195.92 155.15 195.752 155.091 195.6 155.026C195.447 154.961 195.304 154.873 195.171 154.763C195.037 154.652 194.917 154.541 194.81 154.431C194.707 154.316 194.606 154.173 194.507 154.002C194.408 153.83 194.32 153.664 194.244 153.504C194.171 153.34 194.093 153.142 194.009 152.909C193.925 152.672 193.851 152.447 193.786 152.234C193.721 152.02 193.647 151.763 193.563 151.461C193.46 151.095 193.362 150.807 193.271 150.597C193.183 150.384 193.071 150.198 192.933 150.042C192.796 149.886 192.632 149.779 192.441 149.722C192.254 149.661 192.018 149.63 191.732 149.63H190.816V153.292H192.647V155.123H185.323V153.292H187.154V142.764H185.323V140.932H191.961V142.764H190.816V147.799H191.274C191.442 147.795 191.59 147.731 191.72 147.605C191.854 147.475 191.964 147.313 192.052 147.118C192.144 146.92 192.227 146.655 192.304 146.323C192.38 145.991 192.441 145.669 192.487 145.356C192.536 145.039 192.59 144.648 192.647 144.183C192.727 143.511 192.887 142.937 193.128 142.46C193.368 141.984 193.666 141.627 194.02 141.39C194.696 140.932 195.535 140.704 196.538 140.704ZM201.803 140.932H214.162V145.51H212.102V144.595C212.102 144.408 212.085 144.215 212.051 144.017C212.02 143.819 211.971 143.622 211.902 143.427C211.837 143.233 211.742 143.075 211.616 142.953C211.49 142.827 211.347 142.764 211.187 142.764H207.296V147.799H209.356V145.739H211.187V151.69H209.356V149.63H207.296V153.292H211.415C211.576 153.292 211.719 153.231 211.845 153.109C211.971 152.983 212.066 152.823 212.131 152.628C212.199 152.434 212.249 152.238 212.279 152.039C212.314 151.841 212.331 151.648 212.331 151.461V150.546H214.391V155.123H201.803V153.292H203.634V142.764H201.803V140.932ZM215.879 140.932H229.154V145.51H227.094V144.595C227.094 144.408 227.077 144.215 227.042 144.017C227.012 143.819 226.962 143.622 226.894 143.427C226.829 143.233 226.733 143.075 226.608 142.953C226.482 142.827 226.339 142.764 226.178 142.764H224.347V153.292H226.178V155.123H218.854V153.292H220.685V142.764H218.854C218.694 142.764 218.551 142.827 218.425 142.953C218.299 143.075 218.202 143.233 218.133 143.427C218.068 143.622 218.019 143.819 217.984 144.017C217.954 144.215 217.939 144.408 217.939 144.595V145.51H215.879V140.932Z" fill="#6D96FF"/>
<path d="M133.698 116.7H134.598L132.451 119.119L134.776 121.725H133.82L131.551 119.175V121.725H130.726V116.7H131.551V119.137L133.698 116.7ZM137.591 116.616C138.204 116.616 138.657 116.75 138.95 117.019C139.244 117.287 139.391 117.716 139.391 118.303V121.725H138.791L138.632 121.012H138.594C138.45 121.194 138.3 121.347 138.144 121.472C137.994 121.59 137.819 121.678 137.619 121.734C137.426 121.791 137.188 121.819 136.907 121.819C136.607 121.819 136.335 121.766 136.091 121.659C135.853 121.553 135.666 121.391 135.529 121.172C135.391 120.947 135.322 120.666 135.322 120.328C135.322 119.828 135.519 119.444 135.913 119.175C136.307 118.9 136.913 118.75 137.732 118.725L138.585 118.697V118.397C138.585 117.978 138.494 117.687 138.313 117.525C138.132 117.362 137.876 117.281 137.544 117.281C137.282 117.281 137.032 117.322 136.794 117.403C136.557 117.478 136.335 117.566 136.129 117.666L135.875 117.047C136.094 116.928 136.354 116.828 136.654 116.747C136.954 116.659 137.266 116.616 137.591 116.616ZM137.835 119.297C137.21 119.322 136.775 119.422 136.532 119.597C136.294 119.772 136.175 120.019 136.175 120.337C136.175 120.619 136.26 120.825 136.429 120.956C136.603 121.087 136.826 121.153 137.094 121.153C137.519 121.153 137.872 121.037 138.154 120.806C138.435 120.569 138.575 120.206 138.575 119.719V119.269L137.835 119.297ZM141.665 118.528C141.665 118.822 141.746 119.04 141.909 119.184C142.078 119.322 142.318 119.391 142.631 119.391C142.943 119.391 143.228 119.344 143.484 119.25C143.74 119.15 144.002 119.019 144.271 118.856V116.7H145.096V121.725H144.271V119.484C143.99 119.666 143.712 119.809 143.437 119.916C143.168 120.015 142.843 120.066 142.462 120.066C141.949 120.066 141.549 119.931 141.262 119.662C140.981 119.394 140.84 119.034 140.84 118.584V116.7H141.665V118.528ZM148.633 116.606C149.065 116.606 149.433 116.7 149.74 116.887C150.052 117.075 150.29 117.341 150.452 117.684C150.621 118.022 150.705 118.419 150.705 118.875V119.372H147.265C147.277 119.94 147.421 120.375 147.696 120.675C147.977 120.969 148.368 121.116 148.868 121.116C149.186 121.116 149.468 121.087 149.711 121.031C149.961 120.969 150.218 120.881 150.48 120.769V121.491C150.224 121.603 149.971 121.684 149.721 121.734C149.471 121.791 149.174 121.819 148.83 121.819C148.355 121.819 147.933 121.722 147.565 121.528C147.202 121.334 146.918 121.047 146.711 120.666C146.511 120.278 146.411 119.806 146.411 119.25C146.411 118.7 146.502 118.228 146.683 117.834C146.871 117.441 147.13 117.137 147.461 116.925C147.799 116.712 148.19 116.606 148.633 116.606ZM148.624 117.281C148.23 117.281 147.918 117.409 147.686 117.666C147.461 117.915 147.327 118.266 147.283 118.716H149.843C149.843 118.428 149.799 118.178 149.711 117.966C149.624 117.753 149.489 117.587 149.308 117.469C149.133 117.344 148.905 117.281 148.624 117.281ZM154 121.819C153.556 121.819 153.159 121.728 152.809 121.547C152.466 121.365 152.194 121.084 151.994 120.703C151.8 120.322 151.703 119.834 151.703 119.241C151.703 118.622 151.806 118.119 152.012 117.731C152.219 117.344 152.497 117.059 152.847 116.878C153.203 116.697 153.606 116.606 154.056 116.606C154.313 116.606 154.559 116.634 154.797 116.691C155.034 116.741 155.228 116.803 155.378 116.878L155.125 117.562C154.975 117.506 154.8 117.453 154.6 117.403C154.4 117.353 154.212 117.328 154.037 117.328C153.7 117.328 153.422 117.4 153.203 117.544C152.984 117.687 152.822 117.9 152.716 118.181C152.609 118.462 152.556 118.812 152.556 119.231C152.556 119.631 152.609 119.972 152.716 120.253C152.822 120.534 152.981 120.747 153.194 120.891C153.406 121.034 153.672 121.106 153.991 121.106C154.266 121.106 154.506 121.078 154.712 121.022C154.925 120.966 155.119 120.897 155.294 120.816V121.547C155.125 121.634 154.937 121.7 154.731 121.744C154.531 121.794 154.287 121.819 154 121.819ZM159.957 117.394H158.317V121.725H157.501V117.394H155.879V116.7H159.957V117.394ZM164.988 117.966C164.988 118.278 164.894 118.522 164.707 118.697C164.519 118.872 164.279 118.991 163.985 119.053V119.091C164.298 119.134 164.569 119.247 164.801 119.428C165.032 119.603 165.147 119.878 165.147 120.253C165.147 120.465 165.107 120.662 165.026 120.844C164.951 121.025 164.832 121.181 164.669 121.312C164.507 121.444 164.298 121.547 164.041 121.622C163.785 121.691 163.475 121.725 163.113 121.725H160.947V116.7H163.104C163.46 116.7 163.779 116.741 164.06 116.822C164.347 116.897 164.572 117.028 164.735 117.216C164.904 117.397 164.988 117.647 164.988 117.966ZM164.294 120.253C164.294 119.966 164.185 119.759 163.966 119.634C163.747 119.509 163.426 119.447 163.001 119.447H161.772V121.059H163.019C163.432 121.059 163.747 121 163.966 120.881C164.185 120.756 164.294 120.547 164.294 120.253ZM164.154 118.069C164.154 117.831 164.066 117.659 163.891 117.553C163.722 117.441 163.444 117.384 163.057 117.384H161.772V118.762H162.907C163.313 118.762 163.623 118.706 163.835 118.594C164.047 118.481 164.154 118.306 164.154 118.069ZM170.718 119.203C170.718 119.622 170.661 119.994 170.549 120.319C170.443 120.637 170.286 120.909 170.08 121.134C169.88 121.359 169.633 121.531 169.34 121.65C169.052 121.762 168.73 121.819 168.374 121.819C168.043 121.819 167.736 121.762 167.455 121.65C167.174 121.531 166.93 121.359 166.724 121.134C166.518 120.909 166.355 120.637 166.236 120.319C166.124 119.994 166.068 119.622 166.068 119.203C166.068 118.647 166.161 118.178 166.349 117.797C166.536 117.409 166.805 117.116 167.155 116.916C167.505 116.709 167.921 116.606 168.402 116.606C168.858 116.606 169.258 116.709 169.602 116.916C169.952 117.116 170.224 117.409 170.418 117.797C170.618 118.178 170.718 118.647 170.718 119.203ZM166.921 119.203C166.921 119.597 166.971 119.94 167.071 120.234C167.177 120.522 167.34 120.744 167.558 120.9C167.777 121.056 168.055 121.134 168.393 121.134C168.73 121.134 169.008 121.056 169.227 120.9C169.446 120.744 169.605 120.522 169.705 120.234C169.811 119.94 169.865 119.597 169.865 119.203C169.865 118.803 169.811 118.462 169.705 118.181C169.599 117.9 169.436 117.684 169.218 117.534C169.005 117.378 168.727 117.3 168.383 117.3C167.871 117.3 167.499 117.469 167.268 117.806C167.037 118.144 166.921 118.609 166.921 119.203Z" fill="#6D96FF"/>
<path d="M107.051 184.502C106.663 184.502 106.316 184.423 106.01 184.264C105.709 184.106 105.471 183.86 105.296 183.526C105.127 183.192 105.042 182.766 105.042 182.246C105.042 181.705 105.132 181.265 105.312 180.926C105.493 180.587 105.736 180.338 106.042 180.179C106.354 180.021 106.707 179.941 107.101 179.941C107.325 179.941 107.541 179.966 107.749 180.015C107.957 180.059 108.126 180.114 108.257 180.179L108.036 180.778C107.905 180.729 107.752 180.682 107.576 180.639C107.402 180.595 107.237 180.573 107.084 180.573C106.789 180.573 106.546 180.636 106.354 180.762C106.163 180.887 106.021 181.073 105.928 181.319C105.835 181.565 105.788 181.872 105.788 182.238C105.788 182.588 105.835 182.886 105.928 183.132C106.021 183.378 106.16 183.564 106.346 183.69C106.532 183.816 106.764 183.879 107.043 183.879C107.284 183.879 107.494 183.854 107.675 183.805C107.861 183.756 108.031 183.696 108.183 183.624V184.264C108.036 184.341 107.872 184.398 107.691 184.437C107.516 184.48 107.303 184.502 107.051 184.502ZM113.052 182.214C113.052 182.58 113.003 182.905 112.904 183.19C112.811 183.469 112.674 183.707 112.494 183.903C112.319 184.1 112.103 184.251 111.846 184.355C111.594 184.453 111.313 184.502 111.001 184.502C110.711 184.502 110.443 184.453 110.197 184.355C109.951 184.251 109.738 184.1 109.557 183.903C109.377 183.707 109.235 183.469 109.131 183.19C109.032 182.905 108.983 182.58 108.983 182.214C108.983 181.727 109.065 181.317 109.229 180.983C109.393 180.644 109.628 180.387 109.935 180.212C110.241 180.031 110.605 179.941 111.026 179.941C111.425 179.941 111.775 180.031 112.076 180.212C112.382 180.387 112.62 180.644 112.789 180.983C112.964 181.317 113.052 181.727 113.052 182.214ZM109.729 182.214C109.729 182.558 109.773 182.859 109.861 183.116C109.954 183.368 110.096 183.561 110.287 183.698C110.479 183.835 110.722 183.903 111.017 183.903C111.313 183.903 111.556 183.835 111.747 183.698C111.939 183.561 112.078 183.368 112.166 183.116C112.259 182.859 112.305 182.558 112.305 182.214C112.305 181.863 112.259 181.565 112.166 181.319C112.073 181.073 111.931 180.885 111.739 180.753C111.553 180.617 111.31 180.548 111.009 180.548C110.561 180.548 110.235 180.696 110.033 180.991C109.831 181.287 109.729 181.694 109.729 182.214ZM115.078 182.173L113.56 180.023H114.38L115.512 181.68L116.636 180.023H117.448L115.931 182.173L117.53 184.42H116.71L115.512 182.665L114.298 184.42H113.486L115.078 182.173ZM120.469 179.941C121.011 179.941 121.446 180.13 121.774 180.507C122.107 180.885 122.274 181.453 122.274 182.214C122.274 182.711 122.198 183.132 122.044 183.477C121.897 183.816 121.686 184.073 121.413 184.248C121.145 184.418 120.828 184.502 120.461 184.502C120.237 184.502 120.037 184.472 119.862 184.412C119.687 184.352 119.537 184.275 119.411 184.182C119.291 184.084 119.187 183.977 119.099 183.862H119.05C119.061 183.955 119.072 184.073 119.083 184.215C119.094 184.357 119.099 184.48 119.099 184.584V186.389H118.378V180.023H118.968L119.067 180.622H119.099C119.187 180.496 119.291 180.382 119.411 180.278C119.537 180.174 119.685 180.092 119.854 180.032C120.029 179.971 120.234 179.941 120.469 179.941ZM120.338 180.548C120.043 180.548 119.805 180.606 119.624 180.721C119.444 180.83 119.313 180.997 119.231 181.221C119.149 181.445 119.105 181.73 119.099 182.074V182.214C119.099 182.574 119.138 182.881 119.214 183.132C119.291 183.384 119.419 183.575 119.6 183.707C119.786 183.838 120.037 183.903 120.355 183.903C120.623 183.903 120.841 183.83 121.011 183.682C121.186 183.534 121.314 183.335 121.396 183.083C121.484 182.826 121.528 182.533 121.528 182.205C121.528 181.702 121.429 181.3 121.232 180.999C121.041 180.699 120.743 180.548 120.338 180.548ZM125.09 179.949C125.626 179.949 126.022 180.067 126.279 180.302C126.536 180.537 126.665 180.912 126.665 181.426V184.42H126.14L126 183.797H125.968C125.842 183.955 125.71 184.089 125.574 184.199C125.443 184.303 125.289 184.379 125.114 184.428C124.945 184.478 124.737 184.502 124.491 184.502C124.228 184.502 123.991 184.456 123.777 184.363C123.569 184.27 123.405 184.127 123.285 183.936C123.165 183.739 123.105 183.493 123.105 183.198C123.105 182.761 123.277 182.424 123.621 182.189C123.966 181.948 124.496 181.817 125.213 181.795L125.959 181.771V181.508C125.959 181.142 125.88 180.887 125.721 180.745C125.563 180.603 125.339 180.532 125.049 180.532C124.819 180.532 124.6 180.567 124.393 180.639C124.185 180.704 123.991 180.781 123.81 180.868L123.589 180.327C123.78 180.223 124.007 180.136 124.269 180.064C124.532 179.988 124.805 179.949 125.09 179.949ZM125.303 182.296C124.756 182.318 124.376 182.405 124.163 182.558C123.955 182.711 123.851 182.927 123.851 183.206C123.851 183.452 123.925 183.633 124.073 183.748C124.226 183.862 124.42 183.92 124.655 183.92C125.027 183.92 125.336 183.819 125.582 183.616C125.828 183.409 125.951 183.091 125.951 182.665V182.271L125.303 182.296ZM128.745 180.023V181.853H131.132V180.023H131.854V184.42H131.132V182.46H128.745V184.42H128.023V180.023H128.745ZM134.944 179.941C135.321 179.941 135.644 180.023 135.912 180.187C136.185 180.351 136.393 180.584 136.535 180.885C136.683 181.18 136.757 181.527 136.757 181.926V182.361H133.746C133.757 182.859 133.883 183.239 134.124 183.501C134.37 183.758 134.711 183.887 135.149 183.887C135.428 183.887 135.674 183.862 135.887 183.813C136.106 183.758 136.33 183.682 136.56 183.583V184.215C136.336 184.314 136.114 184.385 135.895 184.428C135.677 184.478 135.417 184.502 135.116 184.502C134.7 184.502 134.331 184.418 134.009 184.248C133.691 184.078 133.443 183.827 133.262 183.493C133.087 183.154 133 182.741 133 182.255C133 181.773 133.079 181.36 133.238 181.016C133.402 180.671 133.629 180.406 133.918 180.22C134.214 180.034 134.556 179.941 134.944 179.941ZM134.936 180.532C134.591 180.532 134.318 180.644 134.115 180.868C133.918 181.087 133.801 181.393 133.763 181.787H136.002C136.002 181.535 135.964 181.317 135.887 181.131C135.811 180.945 135.693 180.8 135.534 180.696C135.381 180.587 135.182 180.532 134.936 180.532ZM138.598 180.023V181.853H140.985V180.023H141.707V184.42H140.985V182.46H138.598V184.42H137.876V180.023H138.598ZM143.821 180.023V181.853H146.208V180.023H146.93V184.42H146.208V182.46H143.821V184.42H143.099V180.023H143.821ZM152.145 182.214C152.145 182.58 152.096 182.905 151.997 183.19C151.904 183.469 151.768 183.707 151.587 183.903C151.412 184.1 151.196 184.251 150.939 184.355C150.687 184.453 150.406 184.502 150.094 184.502C149.804 184.502 149.536 184.453 149.29 184.355C149.044 184.251 148.831 184.1 148.65 183.903C148.47 183.707 148.328 183.469 148.224 183.19C148.125 182.905 148.076 182.58 148.076 182.214C148.076 181.727 148.158 181.317 148.322 180.983C148.486 180.644 148.722 180.387 149.028 180.212C149.334 180.031 149.698 179.941 150.119 179.941C150.518 179.941 150.868 180.031 151.169 180.212C151.475 180.387 151.713 180.644 151.882 180.983C152.057 181.317 152.145 181.727 152.145 182.214ZM148.823 182.214C148.823 182.558 148.866 182.859 148.954 183.116C149.047 183.368 149.189 183.561 149.38 183.698C149.572 183.835 149.815 183.903 150.111 183.903C150.406 183.903 150.649 183.835 150.841 183.698C151.032 183.561 151.171 183.368 151.259 183.116C151.352 182.859 151.398 182.558 151.398 182.214C151.398 181.863 151.352 181.565 151.259 181.319C151.166 181.073 151.024 180.885 150.832 180.753C150.646 180.617 150.403 180.548 150.102 180.548C149.654 180.548 149.329 180.696 149.126 180.991C148.924 181.287 148.823 181.694 148.823 182.214ZM154.987 179.941C155.364 179.941 155.687 180.023 155.955 180.187C156.228 180.351 156.436 180.584 156.578 180.885C156.726 181.18 156.8 181.527 156.8 181.926V182.361H153.789C153.8 182.859 153.926 183.239 154.167 183.501C154.413 183.758 154.755 183.887 155.192 183.887C155.471 183.887 155.717 183.862 155.93 183.813C156.149 183.758 156.373 183.682 156.603 183.583V184.215C156.379 184.314 156.157 184.385 155.939 184.428C155.72 184.478 155.46 184.502 155.159 184.502C154.744 184.502 154.374 184.418 154.052 184.248C153.735 184.078 153.486 183.827 153.305 183.493C153.13 183.154 153.043 182.741 153.043 182.255C153.043 181.773 153.122 181.36 153.281 181.016C153.445 180.671 153.672 180.406 153.962 180.22C154.257 180.034 154.599 179.941 154.987 179.941ZM154.979 180.532C154.634 180.532 154.361 180.644 154.158 180.868C153.962 181.087 153.844 181.393 153.806 181.787H156.045C156.045 181.535 156.007 181.317 155.93 181.131C155.854 180.945 155.736 180.8 155.578 180.696C155.424 180.587 155.225 180.532 154.979 180.532ZM163.888 182.173L162.37 180.023H163.19L164.322 181.68L165.446 180.023H166.258L164.741 182.173L166.34 184.42H165.52L164.322 182.665L163.108 184.42H162.296L163.888 182.173ZM170.85 182.214C170.85 182.58 170.801 182.905 170.703 183.19C170.61 183.469 170.473 183.707 170.293 183.903C170.117 184.1 169.901 184.251 169.644 184.355C169.393 184.453 169.111 184.502 168.8 184.502C168.51 184.502 168.242 184.453 167.996 184.355C167.75 184.251 167.536 184.1 167.356 183.903C167.175 183.707 167.033 183.469 166.929 183.19C166.831 182.905 166.782 182.58 166.782 182.214C166.782 181.727 166.864 181.317 167.028 180.983C167.192 180.644 167.427 180.387 167.733 180.212C168.039 180.031 168.403 179.941 168.824 179.941C169.223 179.941 169.573 180.031 169.874 180.212C170.18 180.387 170.418 180.644 170.588 180.983C170.763 181.317 170.85 181.727 170.85 182.214ZM167.528 182.214C167.528 182.558 167.572 182.859 167.659 183.116C167.752 183.368 167.894 183.561 168.086 183.698C168.277 183.835 168.521 183.903 168.816 183.903C169.111 183.903 169.354 183.835 169.546 183.698C169.737 183.561 169.877 183.368 169.964 183.116C170.057 182.859 170.104 182.558 170.104 182.214C170.104 181.863 170.057 181.565 169.964 181.319C169.871 181.073 169.729 180.885 169.538 180.753C169.352 180.617 169.108 180.548 168.808 180.548C168.359 180.548 168.034 180.696 167.832 180.991C167.629 181.287 167.528 181.694 167.528 182.214ZM175.341 184.42H174.611V180.622H173.315C173.26 181.317 173.192 181.91 173.11 182.402C173.028 182.889 172.924 183.285 172.798 183.592C172.672 183.898 172.522 184.122 172.347 184.264C172.172 184.406 171.967 184.478 171.732 184.478C171.661 184.478 171.59 184.472 171.519 184.461C171.453 184.456 171.398 184.442 171.355 184.42V183.879C171.387 183.89 171.423 183.898 171.461 183.903C171.499 183.909 171.538 183.912 171.576 183.912C171.696 183.912 171.806 183.862 171.904 183.764C172.003 183.665 172.09 183.515 172.167 183.313C172.249 183.11 172.323 182.856 172.388 182.55C172.454 182.238 172.511 181.872 172.56 181.451C172.61 181.03 172.653 180.554 172.692 180.023H175.341V184.42ZM180.559 182.214C180.559 182.58 180.51 182.905 180.412 183.19C180.319 183.469 180.182 183.707 180.002 183.903C179.827 184.1 179.611 184.251 179.353 184.355C179.102 184.453 178.82 184.502 178.509 184.502C178.219 184.502 177.951 184.453 177.705 184.355C177.459 184.251 177.245 184.1 177.065 183.903C176.884 183.707 176.742 183.469 176.638 183.19C176.54 182.905 176.491 182.58 176.491 182.214C176.491 181.727 176.573 181.317 176.737 180.983C176.901 180.644 177.136 180.387 177.442 180.212C177.749 180.031 178.112 179.941 178.533 179.941C178.932 179.941 179.283 180.031 179.583 180.212C179.89 180.387 180.127 180.644 180.297 180.983C180.472 181.317 180.559 181.727 180.559 182.214ZM177.237 182.214C177.237 182.558 177.281 182.859 177.368 183.116C177.461 183.368 177.604 183.561 177.795 183.698C177.986 183.835 178.23 183.903 178.525 183.903C178.82 183.903 179.064 183.835 179.255 183.698C179.447 183.561 179.586 183.368 179.673 183.116C179.767 182.859 179.813 182.558 179.813 182.214C179.813 181.863 179.767 181.565 179.673 181.319C179.581 181.073 179.438 180.885 179.247 180.753C179.061 180.617 178.818 180.548 178.517 180.548C178.069 180.548 177.743 180.696 177.541 180.991C177.338 181.287 177.237 181.694 177.237 182.214ZM184.968 180.023V183.813H185.608V185.946H184.911V184.42H181.851V185.946H181.162V183.813H181.515C181.766 183.463 181.974 183.083 182.138 182.673C182.308 182.257 182.433 181.825 182.515 181.377C182.603 180.923 182.65 180.472 182.655 180.023H184.968ZM183.295 180.589C183.273 180.961 183.216 181.347 183.123 181.746C183.03 182.14 182.909 182.517 182.762 182.878C182.619 183.239 182.453 183.551 182.261 183.813H184.271V180.589H183.295ZM190.293 182.214C190.293 182.58 190.243 182.905 190.145 183.19C190.052 183.469 189.915 183.707 189.735 183.903C189.56 184.1 189.344 184.251 189.087 184.355C188.835 184.453 188.554 184.502 188.242 184.502C187.952 184.502 187.684 184.453 187.438 184.355C187.192 184.251 186.979 184.1 186.798 183.903C186.618 183.707 186.476 183.469 186.372 183.19C186.273 182.905 186.224 182.58 186.224 182.214C186.224 181.727 186.306 181.317 186.47 180.983C186.634 180.644 186.869 180.387 187.175 180.212C187.482 180.031 187.845 179.941 188.266 179.941C188.666 179.941 189.016 180.031 189.316 180.212C189.623 180.387 189.861 180.644 190.03 180.983C190.205 181.317 190.293 181.727 190.293 182.214ZM186.97 182.214C186.97 182.558 187.014 182.859 187.102 183.116C187.194 183.368 187.337 183.561 187.528 183.698C187.719 183.835 187.963 183.903 188.258 183.903C188.554 183.903 188.797 183.835 188.988 183.698C189.18 183.561 189.319 183.368 189.407 183.116C189.5 182.859 189.546 182.558 189.546 182.214C189.546 181.863 189.5 181.565 189.407 181.319C189.314 181.073 189.171 180.885 188.98 180.753C188.794 180.617 188.551 180.548 188.25 180.548C187.802 180.548 187.476 180.696 187.274 180.991C187.071 181.287 186.97 181.694 186.97 182.214ZM196.153 180.023V184.42H195.505V181.615C195.505 181.5 195.508 181.379 195.514 181.254C195.524 181.128 195.536 181.005 195.546 180.885H195.522L194.086 184.42H193.479L192.085 180.885H192.06C192.071 181.005 192.077 181.128 192.077 181.254C192.082 181.379 192.085 181.508 192.085 181.639V184.42H191.437V180.023H192.396L193.783 183.559L195.194 180.023H196.153Z" fill="#6D96FF"/>
</svg>
